<mxfile host="app.diagrams.net" modified="2023-04-24T20:41:30.147Z" agent="Mozilla/5.0 (Windows NT 10.0; Win64; x64) AppleWebKit/537.36 (KHTML, like Gecko) Chrome/112.0.0.0 Safari/537.36" etag="cc2S6PCkkHLGa7lizLD7" version="21.2.1" type="google" pages="2">
  <diagram id="l3PhLfIEEx4KEpYzrtBJ" name="EER Model">
    <mxGraphModel grid="1" page="1" gridSize="10" guides="1" tooltips="1" connect="1" arrows="1" fold="0" pageScale="1" pageWidth="1169" pageHeight="827" math="0" shadow="0">
      <root>
        <mxCell id="0" />
        <mxCell id="1" parent="0" />
        <mxCell id="B59qE2EvhQR9CG80C_Uz-1" value="Airplane" style="align=center;strokeColor=#6c8ebf;fillColor=#dae8fc;fontSize=11;labelBackgroundColor=none;shadow=0;fillStyle=auto;fontStyle=1;whiteSpace=wrap;html=1;" vertex="1" parent="1">
          <mxGeometry x="612.29" y="279.64" width="70" height="30" as="geometry" />
        </mxCell>
        <mxCell id="B59qE2EvhQR9CG80C_Uz-4" value="Capacity" style="ellipse;whiteSpace=wrap;html=1;align=center;strokeColor=#000000;fillColor=#ffffff;fontSize=7;" vertex="1" parent="1">
          <mxGeometry x="680.0099999999999" y="230.04" width="50" height="30" as="geometry" />
        </mxCell>
        <mxCell id="e-1JwnE7ZOLf_Y56nIoI-43" value="Model" style="ellipse;whiteSpace=wrap;html=1;align=center;strokeColor=#000000;fillColor=#ffffff;fontSize=7;" vertex="1" parent="1">
          <mxGeometry x="622.29" y="206.65000000000003" width="50" height="30" as="geometry" />
        </mxCell>
        <UserObject label="%date{ddd mmm dd yyyy HH:MM:ss}%" placeholders="1" id="hCRLPxILE3BBqmNvxjHh-2">
          <mxCell style="text;html=1;align=center;verticalAlign=middle;whiteSpace=wrap;overflow=hidden;fontColor=#FCFCFC;movable=0;resizable=0;rotatable=0;deletable=0;editable=0;connectable=0;" vertex="1" parent="1">
            <mxGeometry x="1000" y="800" width="160" height="20" as="geometry" />
          </mxCell>
        </UserObject>
        <mxCell id="hCRLPxILE3BBqmNvxjHh-6" value="" style="shape=filledEdge;rounded=0;fixDash=1;endArrow=none;strokeWidth=10;fillColor=#ffffff;edgeStyle=orthogonalEdgeStyle;fontColor=#FCFCFC;" edge="1" parent="1">
          <mxGeometry width="60" height="40" relative="1" as="geometry">
            <mxPoint x="10" y="790" as="sourcePoint" />
            <mxPoint x="40" y="820" as="targetPoint" />
            <Array as="points">
              <mxPoint x="10" y="820" />
            </Array>
          </mxGeometry>
        </mxCell>
        <mxCell id="hCRLPxILE3BBqmNvxjHh-7" value="" style="shape=filledEdge;rounded=0;fixDash=1;endArrow=none;strokeWidth=10;fillColor=#ffffff;edgeStyle=orthogonalEdgeStyle;fontColor=#FCFCFC;" edge="1" parent="1">
          <mxGeometry width="60" height="40" relative="1" as="geometry">
            <mxPoint x="1130" y="10" as="sourcePoint" />
            <mxPoint x="1160" y="40" as="targetPoint" />
            <Array as="points">
              <mxPoint x="1160" y="10" />
            </Array>
          </mxGeometry>
        </mxCell>
        <mxCell id="hCRLPxILE3BBqmNvxjHh-8" value="" style="shape=filledEdge;rounded=0;fixDash=1;endArrow=none;strokeWidth=10;fillColor=#ffffff;edgeStyle=orthogonalEdgeStyle;fontColor=#FCFCFC;" edge="1" parent="1">
          <mxGeometry width="60" height="40" relative="1" as="geometry">
            <mxPoint x="1129.99" y="820" as="sourcePoint" />
            <mxPoint x="1159.99" y="790" as="targetPoint" />
            <Array as="points">
              <mxPoint x="1159.99" y="820" />
            </Array>
          </mxGeometry>
        </mxCell>
        <mxCell id="hCRLPxILE3BBqmNvxjHh-10" value="&lt;table border=&quot;1&quot; width=&quot;100%&quot; cellpadding=&quot;4&quot; style=&quot;width: 100% ; height: 100% ; border-collapse: collapse&quot;&gt;&lt;tbody&gt;&lt;tr&gt;&lt;th&gt;Assignment #:&lt;/th&gt;&lt;td&gt;4a&lt;/td&gt;&lt;/tr&gt;&lt;tr&gt;&lt;td&gt;Description:&lt;/td&gt;&lt;td&gt;EER Model&lt;/td&gt;&lt;/tr&gt;&lt;tr&gt;&lt;td&gt;Students:&lt;/td&gt;&lt;td&gt;Philip Svensson&lt;br&gt;Mohammed Al-Hashimi&lt;br&gt;&lt;/td&gt;&lt;/tr&gt;&lt;tr&gt;&lt;td&gt;Gitlab URL:&lt;/td&gt;&lt;td&gt;&lt;a href=&quot;https://gitlab.liu.se/alial32/db&quot;&gt;https://gitlab.liu.se/phisv708/db&lt;/a&gt;&lt;/td&gt;&lt;/tr&gt;&lt;/tbody&gt;&lt;/table&gt;" style="text;html=1;strokeColor=none;fillColor=none;overflow=fill;fontColor=#000000;" vertex="1" parent="1">
          <mxGeometry x="10" y="10" width="280" height="110" as="geometry" />
        </mxCell>
        <mxCell id="fbbdfI7BNAjC01HpYx0C-1" value="&lt;br&gt;Note:&lt;br&gt;&lt;ol&gt;&lt;li&gt;This template contains two pages (EER Model, Relational Model, see the bottom of the editor window).&lt;/li&gt;&lt;li&gt;Fit each diagram on one page, preserve the page size.&lt;br&gt;&lt;/li&gt;&lt;li&gt;Fill out the header at the top left corner on both pages.&lt;/li&gt;&lt;li&gt;&lt;span&gt;Keep the diagrams clean, i.e. shapes and lines should not overlap, maintain optimal distance between the objects, etc.&lt;/span&gt;&lt;br&gt;&lt;/li&gt;&lt;li&gt;Save a working copy as an XML .drawio file to be able to correct the diagrams in the future.&lt;/li&gt;&lt;li&gt;To submit the diagrams, they must be exported and uploaded to Gitlab as a PDF file (File-&amp;gt;Export as-&amp;gt;PDF-&amp;gt;All pages).&lt;/li&gt;&lt;/ol&gt;" style="shape=note;size=20;whiteSpace=wrap;html=1;strokeColor=#000000;fillColor=#ffffff;fontColor=#000000;align=left;" vertex="1" parent="1">
          <mxGeometry x="500" y="600" width="370" height="200" as="geometry" />
        </mxCell>
        <mxCell id="BH1sd3b4sbP9Z67Hy9HP-1" value="Notes:&lt;br&gt;&lt;ol&gt;&lt;li&gt;Assuming you have to input passenger info when reserving, the booking table implicitly has access to passengers. Another alternative is to require passenger info on booking, giving the booking table explicit access to passengers.&lt;/li&gt;&lt;li&gt;&lt;br&gt;&lt;/li&gt;&lt;/ol&gt;" style="shape=note;size=20;whiteSpace=wrap;html=1;strokeColor=#000000;fillColor=#ffffff;fontColor=#000000;align=left;" vertex="1" parent="1">
          <mxGeometry x="90" y="600" width="370" height="200" as="geometry" />
        </mxCell>
        <mxCell id="w0xwXOWwuQwDQIYsxM-U-19" value="c" style="group;fontSize=7;" vertex="1" connectable="0" parent="1">
          <mxGeometry x="870" y="510" width="270" height="293.5" as="geometry" />
        </mxCell>
        <mxCell id="w0xwXOWwuQwDQIYsxM-U-1" value="&lt;b style=&quot;font-size: 7px;&quot;&gt;Fill in cardinalities by placing a text block and labeling it 1, N or M&lt;/b&gt;" style="text;html=1;strokeColor=none;fillColor=none;align=center;verticalAlign=middle;whiteSpace=wrap;rounded=0;shadow=0;dashed=1;fontSize=7;" vertex="1" parent="w0xwXOWwuQwDQIYsxM-U-19">
          <mxGeometry x="32.73" y="260" width="227.27" height="26.11" as="geometry" />
        </mxCell>
        <mxCell id="w0xwXOWwuQwDQIYsxM-U-2" value="" style="shape=requiredInterface;html=1;verticalLabelPosition=bottom;shadow=0;fontSize=7;rotation=90;" vertex="1" parent="w0xwXOWwuQwDQIYsxM-U-19">
          <mxGeometry x="144.54545454545456" y="214.11921708185048" width="5.454545454545455" height="10.444839857651244" as="geometry" />
        </mxCell>
        <mxCell id="w0xwXOWwuQwDQIYsxM-U-3" value="" style="endArrow=none;html=1;strokeColor=#000000;fontSize=7;" edge="1" parent="w0xwXOWwuQwDQIYsxM-U-19">
          <mxGeometry width="50" height="50" relative="1" as="geometry">
            <mxPoint x="147.27272727272728" y="255.89857651245552" as="sourcePoint" />
            <mxPoint x="147.27272727272728" y="208.8967971530249" as="targetPoint" />
          </mxGeometry>
        </mxCell>
        <mxCell id="w0xwXOWwuQwDQIYsxM-U-4" value="&lt;font style=&quot;font-size: 7px;&quot;&gt;Use this symbol ==&amp;gt; when showing subclasses &lt;/font&gt;" style="text;html=1;strokeColor=none;fillColor=none;align=center;verticalAlign=middle;whiteSpace=wrap;rounded=0;shadow=0;fontSize=7;" vertex="1" parent="w0xwXOWwuQwDQIYsxM-U-19">
          <mxGeometry x="21.81818181818182" y="211.50800711743773" width="92.72727272727272" height="41.77935943060498" as="geometry" />
        </mxCell>
        <mxCell id="w0xwXOWwuQwDQIYsxM-U-5" value="Attributes" style="ellipse;whiteSpace=wrap;html=1;align=center;shadow=0;gradientColor=none;fontSize=7;" vertex="1" parent="w0xwXOWwuQwDQIYsxM-U-19">
          <mxGeometry x="35.45454545454545" y="36.556939501779354" width="54.54545454545455" height="20.88967971530249" as="geometry" />
        </mxCell>
        <mxCell id="w0xwXOWwuQwDQIYsxM-U-6" value="Relationship" style="shape=rhombus;perimeter=rhombusPerimeter;whiteSpace=wrap;html=1;align=center;shadow=0;gradientColor=none;fontSize=7;" vertex="1" parent="w0xwXOWwuQwDQIYsxM-U-19">
          <mxGeometry x="30" y="75.72508896797152" width="65.45454545454545" height="28.723309608540923" as="geometry" />
        </mxCell>
        <mxCell id="w0xwXOWwuQwDQIYsxM-U-7" value="weak entity" style="shape=ext;margin=3;double=1;whiteSpace=wrap;html=1;align=center;shadow=0;gradientColor=none;fontSize=7;" vertex="1" parent="w0xwXOWwuQwDQIYsxM-U-19">
          <mxGeometry x="117.27272727272727" width="54.54545454545455" height="20.88967971530249" as="geometry" />
        </mxCell>
        <mxCell id="w0xwXOWwuQwDQIYsxM-U-10" value="key Attribute" style="ellipse;whiteSpace=wrap;html=1;align=center;fontStyle=4;shadow=0;gradientColor=none;fontSize=7;" vertex="1" parent="w0xwXOWwuQwDQIYsxM-U-19">
          <mxGeometry x="35.45454545454545" y="125.33807829181494" width="54.54545454545455" height="20.88967971530249" as="geometry" />
        </mxCell>
        <mxCell id="w0xwXOWwuQwDQIYsxM-U-12" value="derived attribute" style="ellipse;whiteSpace=wrap;html=1;align=center;dashed=1;shadow=0;gradientColor=none;fontSize=7;" vertex="1" parent="w0xwXOWwuQwDQIYsxM-U-19">
          <mxGeometry x="204.55" y="121.9" width="55.45" height="24.66" as="geometry" />
        </mxCell>
        <mxCell id="w0xwXOWwuQwDQIYsxM-U-14" value="E2" style="rounded=1;arcSize=10;whiteSpace=wrap;html=1;align=center;shadow=0;gradientColor=none;fontSize=7;" vertex="1" parent="w0xwXOWwuQwDQIYsxM-U-19">
          <mxGeometry x="237.27272727272722" y="167.1174377224199" width="32.72727272727273" height="15.667259786476867" as="geometry" />
        </mxCell>
        <mxCell id="w0xwXOWwuQwDQIYsxM-U-15" value="R" style="shape=rhombus;perimeter=rhombusPerimeter;whiteSpace=wrap;html=1;align=center;shadow=0;gradientColor=none;fontSize=7;" vertex="1" parent="w0xwXOWwuQwDQIYsxM-U-19">
          <mxGeometry x="155.45454545454544" y="165.1590302491103" width="49.090909090909086" height="19.584074733096084" as="geometry" />
        </mxCell>
        <mxCell id="w0xwXOWwuQwDQIYsxM-U-9" value="" style="shape=link;html=1;rounded=0;entryX=0;entryY=0.5;entryDx=0;entryDy=0;exitX=1;exitY=0.5;exitDx=0;exitDy=0;fontSize=7;" edge="1" parent="w0xwXOWwuQwDQIYsxM-U-19" source="w0xwXOWwuQwDQIYsxM-U-15" target="w0xwXOWwuQwDQIYsxM-U-14">
          <mxGeometry relative="1" as="geometry">
            <mxPoint x="193.63636363636365" y="177.56227758007117" as="sourcePoint" />
            <mxPoint x="193.63636363636365" y="177.30115658362988" as="targetPoint" />
          </mxGeometry>
        </mxCell>
        <mxCell id="w0xwXOWwuQwDQIYsxM-U-16" value="E1" style="rounded=1;arcSize=10;whiteSpace=wrap;html=1;align=center;shadow=0;gradientColor=none;fontSize=7;" vertex="1" parent="w0xwXOWwuQwDQIYsxM-U-19">
          <mxGeometry x="106.36363636363636" y="167.1174377224199" width="32.72727272727273" height="15.667259786476867" as="geometry" />
        </mxCell>
        <mxCell id="w0xwXOWwuQwDQIYsxM-U-17" value="" style="endArrow=none;html=1;rounded=0;exitX=0;exitY=0.5;exitDx=0;exitDy=0;entryX=1;entryY=0.5;entryDx=0;entryDy=0;fontSize=7;" edge="1" parent="w0xwXOWwuQwDQIYsxM-U-19" source="w0xwXOWwuQwDQIYsxM-U-15" target="w0xwXOWwuQwDQIYsxM-U-16">
          <mxGeometry relative="1" as="geometry">
            <mxPoint x="-237.27272727272722" y="302.90035587188606" as="sourcePoint" />
            <mxPoint x="-150" y="302.90035587188606" as="targetPoint" />
          </mxGeometry>
        </mxCell>
        <mxCell id="w0xwXOWwuQwDQIYsxM-U-18" value="&lt;font style=&quot;font-size: 7px;&quot;&gt;Total participation of E2 in R&lt;/font&gt;" style="text;html=1;align=center;verticalAlign=middle;resizable=0;points=[];autosize=1;fontSize=7;" vertex="1" parent="w0xwXOWwuQwDQIYsxM-U-19">
          <mxGeometry x="122.72923006205471" y="189.99994323339143" width="100" height="10" as="geometry" />
        </mxCell>
        <mxCell id="w0xwXOWwuQwDQIYsxM-U-24" value="&lt;span style=&quot;border-bottom: 1px dotted&quot;&gt;part of key attribute&lt;/span&gt;" style="ellipse;whiteSpace=wrap;html=1;align=center;strokeColor=#000000;fillColor=#ffffff;fontSize=7;fontColor=#000000;" vertex="1" parent="w0xwXOWwuQwDQIYsxM-U-19">
          <mxGeometry x="109.55" y="122.23" width="75.45" height="24" as="geometry" />
        </mxCell>
        <mxCell id="w0xwXOWwuQwDQIYsxM-U-25" value="multivalued attribute" style="ellipse;shape=doubleEllipse;margin=3;whiteSpace=wrap;html=1;align=center;strokeColor=#000000;fillColor=#ffffff;fontSize=7;fontColor=#000000;" vertex="1" parent="w0xwXOWwuQwDQIYsxM-U-19">
          <mxGeometry x="109.55" y="33.45" width="65" height="24" as="geometry" />
        </mxCell>
        <mxCell id="w0xwXOWwuQwDQIYsxM-U-26" value="identifying relationship" style="shape=rhombus;double=1;perimeter=rhombusPerimeter;whiteSpace=wrap;html=1;align=center;strokeColor=#000000;fillColor=#ffffff;fontSize=7;fontColor=#000000;" vertex="1" parent="w0xwXOWwuQwDQIYsxM-U-19">
          <mxGeometry x="106.36" y="68.09" width="73" height="44" as="geometry" />
        </mxCell>
        <mxCell id="w0xwXOWwuQwDQIYsxM-U-27" value="Entity" style="whiteSpace=wrap;html=1;align=center;strokeColor=#000000;fillColor=#ffffff;fontSize=7;fontColor=#000000;" vertex="1" parent="w0xwXOWwuQwDQIYsxM-U-19">
          <mxGeometry x="35.45" width="57" height="20.89" as="geometry" />
        </mxCell>
        <mxCell id="6YndOh8D73mqKDZ_mxwR-6" value="Airport" style="align=center;strokeColor=#6c8ebf;fillColor=#dae8fc;fontSize=11;labelBackgroundColor=none;shadow=0;fillStyle=auto;fontStyle=1;whiteSpace=wrap;html=1;" vertex="1" parent="1">
          <mxGeometry x="800.24" y="176.33" width="70" height="30" as="geometry" />
        </mxCell>
        <mxCell id="6YndOh8D73mqKDZ_mxwR-11" value="" style="edgeStyle=none;shape=connector;rounded=0;orthogonalLoop=1;jettySize=auto;html=1;labelBackgroundColor=default;strokeColor=default;fontFamily=Helvetica;fontSize=7;fontColor=default;endArrow=none;endFill=0;" edge="1" parent="1" source="6YndOh8D73mqKDZ_mxwR-10" target="6YndOh8D73mqKDZ_mxwR-6">
          <mxGeometry relative="1" as="geometry" />
        </mxCell>
        <mxCell id="6YndOh8D73mqKDZ_mxwR-10" value="Name" style="ellipse;whiteSpace=wrap;html=1;align=center;strokeColor=#000000;fillColor=#ffffff;fontSize=7;" vertex="1" parent="1">
          <mxGeometry x="782.96" y="108.6" width="50" height="30" as="geometry" />
        </mxCell>
        <mxCell id="6YndOh8D73mqKDZ_mxwR-14" value="" style="edgeStyle=none;shape=connector;rounded=0;orthogonalLoop=1;jettySize=auto;html=1;labelBackgroundColor=default;strokeColor=default;fontFamily=Helvetica;fontSize=7;fontColor=default;endArrow=none;endFill=0;" edge="1" parent="1" source="e-1JwnE7ZOLf_Y56nIoI-2" target="6YndOh8D73mqKDZ_mxwR-6">
          <mxGeometry relative="1" as="geometry" />
        </mxCell>
        <mxCell id="6YndOh8D73mqKDZ_mxwR-12" value="Country" style="ellipse;whiteSpace=wrap;html=1;align=center;strokeColor=#000000;fillColor=#ffffff;fontSize=7;" vertex="1" parent="1">
          <mxGeometry x="905.01" y="118.6" width="50" height="30" as="geometry" />
        </mxCell>
        <mxCell id="Qf1WPh9bubAhgD8E0PNI-15" style="edgeStyle=none;shape=connector;rounded=0;orthogonalLoop=1;jettySize=auto;html=1;labelBackgroundColor=default;strokeColor=default;fontFamily=Helvetica;fontSize=11;fontColor=default;endArrow=none;endFill=0;entryX=0.441;entryY=0.959;entryDx=0;entryDy=0;entryPerimeter=0;exitX=-0.063;exitY=0.866;exitDx=0;exitDy=0;exitPerimeter=0;" edge="1" parent="1" source="6YndOh8D73mqKDZ_mxwR-46" target="6YndOh8D73mqKDZ_mxwR-41">
          <mxGeometry relative="1" as="geometry">
            <mxPoint x="795.01" y="290.6" as="targetPoint" />
          </mxGeometry>
        </mxCell>
        <mxCell id="6YndOh8D73mqKDZ_mxwR-15" value="Route" style="align=center;strokeColor=#6c8ebf;fillColor=#dae8fc;fontSize=11;labelBackgroundColor=none;shadow=0;fillStyle=auto;fontStyle=1;whiteSpace=wrap;html=1;" vertex="1" parent="1">
          <mxGeometry x="800.24" y="275.6" width="70" height="30" as="geometry" />
        </mxCell>
        <mxCell id="6YndOh8D73mqKDZ_mxwR-42" value="" style="edgeStyle=none;shape=connector;rounded=0;orthogonalLoop=1;jettySize=auto;html=1;labelBackgroundColor=default;strokeColor=default;fontFamily=Helvetica;fontSize=7;fontColor=default;endArrow=none;endFill=0;" edge="1" parent="1" source="6YndOh8D73mqKDZ_mxwR-41" target="6YndOh8D73mqKDZ_mxwR-15">
          <mxGeometry relative="1" as="geometry" />
        </mxCell>
        <mxCell id="6YndOh8D73mqKDZ_mxwR-43" value="" style="edgeStyle=none;shape=connector;rounded=0;orthogonalLoop=1;jettySize=auto;html=1;labelBackgroundColor=default;strokeColor=default;fontFamily=Helvetica;fontSize=7;fontColor=default;endArrow=none;endFill=0;" edge="1" parent="1" source="6YndOh8D73mqKDZ_mxwR-41" target="6YndOh8D73mqKDZ_mxwR-6">
          <mxGeometry relative="1" as="geometry" />
        </mxCell>
        <mxCell id="6YndOh8D73mqKDZ_mxwR-41" value="To and&lt;br style=&quot;font-size: 7px;&quot;&gt;From" style="shape=rhombus;perimeter=rhombusPerimeter;whiteSpace=wrap;html=1;align=center;shadow=0;fontSize=7;fillColor=#fff2cc;strokeColor=#d6b656;" vertex="1" parent="1">
          <mxGeometry x="802.51" y="226.52508896797144" width="65.45454545454545" height="28.723309608540923" as="geometry" />
        </mxCell>
        <mxCell id="6YndOh8D73mqKDZ_mxwR-46" value="&lt;span style=&quot;font-weight: normal; font-size: 7px;&quot;&gt;N&lt;/span&gt;" style="text;strokeColor=none;fillColor=none;html=1;fontSize=7;fontStyle=1;verticalAlign=middle;align=center;fontFamily=Helvetica;fontColor=default;" vertex="1" parent="1">
          <mxGeometry x="832.96" y="256" width="25" height="22.64" as="geometry" />
        </mxCell>
        <mxCell id="6YndOh8D73mqKDZ_mxwR-50" value="" style="edgeStyle=none;shape=connector;rounded=0;orthogonalLoop=1;jettySize=auto;html=1;labelBackgroundColor=default;strokeColor=default;fontFamily=Helvetica;fontSize=7;fontColor=default;endArrow=none;endFill=0;" edge="1" parent="1" source="6YndOh8D73mqKDZ_mxwR-12" target="6YndOh8D73mqKDZ_mxwR-6">
          <mxGeometry relative="1" as="geometry">
            <mxPoint x="650.24" y="113.6" as="sourcePoint" />
            <mxPoint x="630.24" y="193.6" as="targetPoint" />
          </mxGeometry>
        </mxCell>
        <mxCell id="e-1JwnE7ZOLf_Y56nIoI-2" value="City" style="ellipse;whiteSpace=wrap;html=1;align=center;strokeColor=#000000;fillColor=#ffffff;fontSize=7;" vertex="1" parent="1">
          <mxGeometry x="845.01" y="108.6" width="50" height="30" as="geometry" />
        </mxCell>
        <mxCell id="6YndOh8D73mqKDZ_mxwR-59" value="&lt;span style=&quot;font-weight: normal; font-size: 7px;&quot;&gt;2&lt;/span&gt;" style="text;strokeColor=none;fillColor=none;html=1;fontSize=7;fontStyle=1;verticalAlign=middle;align=center;fontFamily=Helvetica;fontColor=default;" vertex="1" parent="1">
          <mxGeometry x="830.47" y="206.32999999999998" width="25" height="22.64" as="geometry" />
        </mxCell>
        <mxCell id="6YndOh8D73mqKDZ_mxwR-215" value="" style="edgeStyle=none;shape=connector;rounded=0;orthogonalLoop=1;jettySize=auto;html=1;labelBackgroundColor=default;strokeColor=default;fontFamily=Helvetica;fontSize=11;fontColor=default;endArrow=none;endFill=0;" edge="1" parent="1" source="6YndOh8D73mqKDZ_mxwR-60" target="6YndOh8D73mqKDZ_mxwR-166">
          <mxGeometry relative="1" as="geometry" />
        </mxCell>
        <mxCell id="6YndOh8D73mqKDZ_mxwR-60" value="Booking" style="align=center;strokeColor=#6c8ebf;fillColor=#dae8fc;fontSize=11;labelBackgroundColor=none;shadow=0;fillStyle=auto;fontStyle=1;whiteSpace=wrap;html=1;" vertex="1" parent="1">
          <mxGeometry x="374.09000000000003" y="385.0400000000001" width="70" height="30" as="geometry" />
        </mxCell>
        <mxCell id="6YndOh8D73mqKDZ_mxwR-94" value="" style="edgeStyle=none;shape=connector;rounded=0;orthogonalLoop=1;jettySize=auto;html=1;labelBackgroundColor=default;strokeColor=default;fontFamily=Helvetica;fontSize=7;fontColor=default;endArrow=none;endFill=0;" edge="1" parent="1" source="6YndOh8D73mqKDZ_mxwR-61" target="6YndOh8D73mqKDZ_mxwR-92">
          <mxGeometry relative="1" as="geometry" />
        </mxCell>
        <mxCell id="6YndOh8D73mqKDZ_mxwR-61" value="Reservation" style="align=center;strokeColor=#6c8ebf;fillColor=#dae8fc;fontSize=11;labelBackgroundColor=none;shadow=0;fillStyle=auto;fontStyle=1;whiteSpace=wrap;html=1;" vertex="1" parent="1">
          <mxGeometry x="469.34000000000003" y="201.32" width="70" height="30" as="geometry" />
        </mxCell>
        <mxCell id="6YndOh8D73mqKDZ_mxwR-66" value="Weekly Schedule" style="align=center;strokeColor=#6c8ebf;fillColor=#dae8fc;fontSize=11;labelBackgroundColor=none;shadow=0;fillStyle=auto;fontStyle=1;whiteSpace=wrap;html=1;" vertex="1" parent="1">
          <mxGeometry x="800.24" y="379.28000000000003" width="70" height="30" as="geometry" />
        </mxCell>
        <mxCell id="6YndOh8D73mqKDZ_mxwR-68" value="" style="edgeStyle=none;shape=connector;rounded=0;orthogonalLoop=1;jettySize=auto;html=1;labelBackgroundColor=default;strokeColor=default;fontFamily=Helvetica;fontSize=7;fontColor=default;endArrow=none;endFill=0;" edge="1" parent="1" source="6YndOh8D73mqKDZ_mxwR-67" target="6YndOh8D73mqKDZ_mxwR-66">
          <mxGeometry relative="1" as="geometry" />
        </mxCell>
        <mxCell id="6YndOh8D73mqKDZ_mxwR-69" value="" style="edgeStyle=none;shape=connector;rounded=0;orthogonalLoop=1;jettySize=auto;html=1;labelBackgroundColor=default;strokeColor=default;fontFamily=Helvetica;fontSize=7;fontColor=default;endArrow=none;endFill=0;entryX=0.5;entryY=1;entryDx=0;entryDy=0;" edge="1" parent="1" source="6YndOh8D73mqKDZ_mxwR-67" target="6YndOh8D73mqKDZ_mxwR-15">
          <mxGeometry relative="1" as="geometry" />
        </mxCell>
        <mxCell id="6YndOh8D73mqKDZ_mxwR-67" value="Has" style="shape=rhombus;perimeter=rhombusPerimeter;whiteSpace=wrap;html=1;align=center;shadow=0;fontSize=7;fillColor=#fff2cc;strokeColor=#d6b656;" vertex="1" parent="1">
          <mxGeometry x="802.51" y="327.9150889679715" width="65.45454545454545" height="28.723309608540923" as="geometry" />
        </mxCell>
        <mxCell id="6YndOh8D73mqKDZ_mxwR-75" value="" style="edgeStyle=none;shape=connector;rounded=0;orthogonalLoop=1;jettySize=auto;html=1;labelBackgroundColor=default;strokeColor=default;fontFamily=Helvetica;fontSize=7;fontColor=default;endArrow=none;endFill=0;entryX=0.862;entryY=1.012;entryDx=0;entryDy=0;entryPerimeter=0;" edge="1" parent="1" source="6YndOh8D73mqKDZ_mxwR-72" target="6YndOh8D73mqKDZ_mxwR-66">
          <mxGeometry relative="1" as="geometry" />
        </mxCell>
        <mxCell id="6YndOh8D73mqKDZ_mxwR-72" value="Year" style="ellipse;whiteSpace=wrap;html=1;align=center;strokeColor=#000000;fillColor=#ffffff;fontSize=7;" vertex="1" parent="1">
          <mxGeometry x="875.01" y="450.68" width="50" height="30" as="geometry" />
        </mxCell>
        <mxCell id="6YndOh8D73mqKDZ_mxwR-74" value="" style="edgeStyle=none;shape=connector;rounded=0;orthogonalLoop=1;jettySize=auto;html=1;labelBackgroundColor=default;strokeColor=default;fontFamily=Helvetica;fontSize=7;fontColor=default;endArrow=none;endFill=0;entryX=1;entryY=0.5;entryDx=0;entryDy=0;exitX=0;exitY=0.5;exitDx=0;exitDy=0;" edge="1" parent="1" source="6YndOh8D73mqKDZ_mxwR-73" target="6YndOh8D73mqKDZ_mxwR-66">
          <mxGeometry relative="1" as="geometry">
            <mxPoint x="943.7293883537075" y="414.3961735442134" as="sourcePoint" />
          </mxGeometry>
        </mxCell>
        <mxCell id="6YndOh8D73mqKDZ_mxwR-73" value="Weekday" style="ellipse;whiteSpace=wrap;html=1;align=center;strokeColor=#000000;fillColor=#ffffff;fontSize=7;" vertex="1" parent="1">
          <mxGeometry x="925.01" y="392.86000000000007" width="50" height="30" as="geometry" />
        </mxCell>
        <mxCell id="6YndOh8D73mqKDZ_mxwR-76" value="Time of Departure" style="ellipse;whiteSpace=wrap;html=1;align=center;strokeColor=#000000;fillColor=#ffffff;fontSize=7;" vertex="1" parent="1">
          <mxGeometry x="925.0100000000001" y="358.68000000000006" width="50" height="30" as="geometry" />
        </mxCell>
        <mxCell id="6YndOh8D73mqKDZ_mxwR-77" value="" style="edgeStyle=none;shape=connector;rounded=0;orthogonalLoop=1;jettySize=auto;html=1;labelBackgroundColor=default;strokeColor=default;fontFamily=Helvetica;fontSize=7;fontColor=default;endArrow=none;endFill=0;" edge="1" parent="1" source="6YndOh8D73mqKDZ_mxwR-76" target="6YndOh8D73mqKDZ_mxwR-66">
          <mxGeometry relative="1" as="geometry" />
        </mxCell>
        <mxCell id="e-1JwnE7ZOLf_Y56nIoI-22" value="Flight" style="align=center;strokeColor=#6c8ebf;fillColor=#dae8fc;fontSize=11;labelBackgroundColor=none;shadow=0;fillStyle=auto;fontStyle=1;whiteSpace=wrap;html=1;" vertex="1" parent="1">
          <mxGeometry x="612.51" y="382.72" width="70" height="30" as="geometry" />
        </mxCell>
        <mxCell id="6YndOh8D73mqKDZ_mxwR-85" value="" style="edgeStyle=none;shape=connector;rounded=0;orthogonalLoop=1;jettySize=auto;html=1;labelBackgroundColor=default;strokeColor=default;fontFamily=Helvetica;fontSize=7;fontColor=default;endArrow=none;endFill=0;entryX=-0.001;entryY=0.553;entryDx=0;entryDy=0;exitX=1;exitY=0.5;exitDx=0;exitDy=0;entryPerimeter=0;" edge="1" parent="1" source="e-1JwnE7ZOLf_Y56nIoI-24" target="6YndOh8D73mqKDZ_mxwR-66">
          <mxGeometry relative="1" as="geometry" />
        </mxCell>
        <mxCell id="6YndOh8D73mqKDZ_mxwR-86" value="" style="edgeStyle=none;shape=connector;rounded=0;orthogonalLoop=1;jettySize=auto;html=1;labelBackgroundColor=default;strokeColor=default;fontFamily=Helvetica;fontSize=7;fontColor=default;endArrow=none;endFill=0;entryX=0.999;entryY=0.375;entryDx=0;entryDy=0;entryPerimeter=0;exitX=0.055;exitY=0.455;exitDx=0;exitDy=0;exitPerimeter=0;" edge="1" parent="1" source="e-1JwnE7ZOLf_Y56nIoI-24" target="e-1JwnE7ZOLf_Y56nIoI-22">
          <mxGeometry relative="1" as="geometry" />
        </mxCell>
        <mxCell id="e-1JwnE7ZOLf_Y56nIoI-24" value="Instance of" style="shape=rhombus;perimeter=rhombusPerimeter;whiteSpace=wrap;html=1;align=center;shadow=0;fontSize=7;fillColor=#fff2cc;strokeColor=#d6b656;" vertex="1" parent="1">
          <mxGeometry x="705.01" y="381.0750889679715" width="65.45454545454545" height="28.723309608540923" as="geometry" />
        </mxCell>
        <mxCell id="6YndOh8D73mqKDZ_mxwR-87" value="&lt;span style=&quot;font-weight: normal; font-size: 7px;&quot;&gt;N&lt;/span&gt;" style="text;strokeColor=none;fillColor=none;html=1;fontSize=7;fontStyle=1;verticalAlign=middle;align=center;fontFamily=Helvetica;fontColor=default;" vertex="1" parent="1">
          <mxGeometry x="678.01" y="375.08000000000004" width="25" height="22.64" as="geometry" />
        </mxCell>
        <mxCell id="6YndOh8D73mqKDZ_mxwR-88" value="&lt;span style=&quot;font-weight: normal; font-size: 7px;&quot;&gt;1&lt;/span&gt;" style="text;strokeColor=none;fillColor=none;html=1;fontSize=7;fontStyle=1;verticalAlign=middle;align=center;fontFamily=Helvetica;fontColor=default;" vertex="1" parent="1">
          <mxGeometry x="779.51" y="376.08000000000004" width="25" height="22.64" as="geometry" />
        </mxCell>
        <mxCell id="6YndOh8D73mqKDZ_mxwR-90" value="" style="edgeStyle=none;shape=connector;rounded=0;orthogonalLoop=1;jettySize=auto;html=1;labelBackgroundColor=default;strokeColor=default;fontFamily=Helvetica;fontSize=7;fontColor=default;endArrow=none;endFill=0;entryX=0.5;entryY=1;entryDx=0;entryDy=0;" edge="1" parent="1" source="6YndOh8D73mqKDZ_mxwR-89" target="e-1JwnE7ZOLf_Y56nIoI-22">
          <mxGeometry relative="1" as="geometry" />
        </mxCell>
        <mxCell id="6YndOh8D73mqKDZ_mxwR-89" value="Week&lt;br&gt;Number" style="ellipse;whiteSpace=wrap;html=1;align=center;strokeColor=#000000;fillColor=#ffffff;fontSize=7;" vertex="1" parent="1">
          <mxGeometry x="622.5145454545453" y="453.7169395017793" width="50" height="30" as="geometry" />
        </mxCell>
        <mxCell id="6YndOh8D73mqKDZ_mxwR-106" value="" style="edgeStyle=none;shape=connector;rounded=0;orthogonalLoop=1;jettySize=auto;html=1;labelBackgroundColor=default;strokeColor=default;fontFamily=Helvetica;fontSize=7;fontColor=default;endArrow=none;endFill=0;entryX=0.121;entryY=0.014;entryDx=0;entryDy=0;entryPerimeter=0;" edge="1" parent="1" source="6YndOh8D73mqKDZ_mxwR-92" target="e-1JwnE7ZOLf_Y56nIoI-22">
          <mxGeometry relative="1" as="geometry" />
        </mxCell>
        <mxCell id="6YndOh8D73mqKDZ_mxwR-92" value="Reserves&lt;br style=&quot;font-size: 7px;&quot;&gt;seats on" style="shape=rhombus;perimeter=rhombusPerimeter;whiteSpace=wrap;html=1;align=center;shadow=0;fontSize=7;fillColor=#fff2cc;strokeColor=#d6b656;" vertex="1" parent="1">
          <mxGeometry x="529.3399999999999" y="294.5750889679715" width="65.45454545454545" height="28.723309608540923" as="geometry" />
        </mxCell>
        <mxCell id="6YndOh8D73mqKDZ_mxwR-95" value="&lt;span style=&quot;font-weight: normal; font-size: 7px;&quot;&gt;N&lt;/span&gt;" style="text;strokeColor=none;fillColor=none;html=1;fontSize=7;fontStyle=1;verticalAlign=middle;align=center;fontFamily=Helvetica;fontColor=default;" vertex="1" parent="1">
          <mxGeometry x="515.95" y="229.23000000000002" width="25" height="22.64" as="geometry" />
        </mxCell>
        <mxCell id="6YndOh8D73mqKDZ_mxwR-96" value="&lt;span style=&quot;font-weight: normal; font-size: 7px;&quot;&gt;1&lt;/span&gt;" style="text;strokeColor=none;fillColor=none;html=1;fontSize=7;fontStyle=1;verticalAlign=middle;align=center;fontFamily=Helvetica;fontColor=default;" vertex="1" parent="1">
          <mxGeometry x="607.7300000000001" y="360.08" width="25" height="22.64" as="geometry" />
        </mxCell>
        <mxCell id="6YndOh8D73mqKDZ_mxwR-101" value="Passenger" style="align=center;strokeColor=#6c8ebf;fillColor=#dae8fc;fontSize=11;labelBackgroundColor=none;shadow=0;fillStyle=auto;fontStyle=1;whiteSpace=wrap;html=1;" vertex="1" parent="1">
          <mxGeometry x="246.36000000000007" y="203.72" width="70" height="30" as="geometry" />
        </mxCell>
        <mxCell id="6YndOh8D73mqKDZ_mxwR-103" value="" style="edgeStyle=none;shape=connector;rounded=0;orthogonalLoop=1;jettySize=auto;html=1;labelBackgroundColor=default;strokeColor=default;fontFamily=Helvetica;fontSize=7;fontColor=default;endArrow=none;endFill=0;exitX=0.889;exitY=0.413;exitDx=0;exitDy=0;exitPerimeter=0;entryX=0;entryY=0.5;entryDx=0;entryDy=0;" edge="1" parent="1" source="6YndOh8D73mqKDZ_mxwR-102" target="6YndOh8D73mqKDZ_mxwR-61">
          <mxGeometry relative="1" as="geometry">
            <mxPoint x="469.48" y="213.45999999999998" as="targetPoint" />
            <mxPoint x="418.06000000000006" y="213.36674822064055" as="sourcePoint" />
          </mxGeometry>
        </mxCell>
        <mxCell id="e-1JwnE7ZOLf_Y56nIoI-81" style="edgeStyle=none;shape=connector;rounded=0;orthogonalLoop=1;jettySize=auto;html=1;labelBackgroundColor=default;strokeColor=default;fontFamily=Helvetica;fontSize=11;fontColor=default;endArrow=none;endFill=0;exitX=0.095;exitY=0.399;exitDx=0;exitDy=0;exitPerimeter=0;entryX=1.001;entryY=0.408;entryDx=0;entryDy=0;entryPerimeter=0;" edge="1" parent="1" source="6YndOh8D73mqKDZ_mxwR-102" target="6YndOh8D73mqKDZ_mxwR-101">
          <mxGeometry relative="1" as="geometry">
            <mxPoint x="356.1422587184658" y="214.71773496191958" as="sourcePoint" />
            <mxPoint x="316.36000000000007" y="214.7189399045419" as="targetPoint" />
          </mxGeometry>
        </mxCell>
        <mxCell id="e-1JwnE7ZOLf_Y56nIoI-82" style="edgeStyle=none;shape=connector;rounded=0;orthogonalLoop=1;jettySize=auto;html=1;labelBackgroundColor=default;strokeColor=default;fontFamily=Helvetica;fontSize=11;fontColor=default;endArrow=none;endFill=0;exitX=0.059;exitY=0.565;exitDx=0;exitDy=0;exitPerimeter=0;entryX=0.221;entryY=0.983;entryDx=0;entryDy=0;entryPerimeter=0;" edge="1" parent="1" source="6YndOh8D73mqKDZ_mxwR-102" target="6YndOh8D73mqKDZ_mxwR-134">
          <mxGeometry relative="1" as="geometry">
            <mxPoint x="363.7327272727274" y="220.50290480427043" as="sourcePoint" />
            <mxPoint x="316.4300000000001" y="220.63000000000005" as="targetPoint" />
          </mxGeometry>
        </mxCell>
        <mxCell id="6YndOh8D73mqKDZ_mxwR-102" value="Has" style="shape=rhombus;perimeter=rhombusPerimeter;whiteSpace=wrap;html=1;align=center;shadow=0;fontSize=7;fillColor=#fff2cc;strokeColor=#d6b656;" vertex="1" parent="1">
          <mxGeometry x="356.14000000000004" y="204.35508896797145" width="65.45454545454545" height="28.723309608540923" as="geometry" />
        </mxCell>
        <mxCell id="6YndOh8D73mqKDZ_mxwR-107" value="&lt;span style=&quot;font-weight: normal; font-size: 7px;&quot;&gt;1&lt;/span&gt;" style="text;strokeColor=none;fillColor=none;html=1;fontSize=7;fontStyle=1;verticalAlign=middle;align=center;fontFamily=Helvetica;fontColor=default;" vertex="1" parent="1">
          <mxGeometry x="832.96" y="305.6" width="25" height="22.64" as="geometry" />
        </mxCell>
        <mxCell id="6YndOh8D73mqKDZ_mxwR-108" value="&lt;span style=&quot;font-weight: normal; font-size: 7px;&quot;&gt;N&lt;/span&gt;" style="text;strokeColor=none;fillColor=none;html=1;fontSize=7;fontStyle=1;verticalAlign=middle;align=center;fontFamily=Helvetica;fontColor=default;" vertex="1" parent="1">
          <mxGeometry x="832.96" y="356.64000000000004" width="25" height="22.64" as="geometry" />
        </mxCell>
        <mxCell id="6YndOh8D73mqKDZ_mxwR-111" value="" style="edgeStyle=none;shape=connector;rounded=0;orthogonalLoop=1;jettySize=auto;html=1;labelBackgroundColor=default;strokeColor=default;fontFamily=Helvetica;fontSize=7;fontColor=default;endArrow=none;endFill=0;" edge="1" parent="1" source="6YndOh8D73mqKDZ_mxwR-110" target="6YndOh8D73mqKDZ_mxwR-101">
          <mxGeometry relative="1" as="geometry" />
        </mxCell>
        <mxCell id="6YndOh8D73mqKDZ_mxwR-110" value="Name" style="ellipse;whiteSpace=wrap;html=1;align=center;strokeColor=#000000;fillColor=#ffffff;fontSize=7;" vertex="1" parent="1">
          <mxGeometry x="289.31" y="140.93999999999994" width="50" height="30" as="geometry" />
        </mxCell>
        <mxCell id="6YndOh8D73mqKDZ_mxwR-114" value="" style="edgeStyle=none;shape=connector;rounded=0;orthogonalLoop=1;jettySize=auto;html=1;labelBackgroundColor=default;strokeColor=default;fontFamily=Helvetica;fontSize=7;fontColor=default;endArrow=none;endFill=0;entryX=1;entryY=0.5;entryDx=0;entryDy=0;" edge="1" parent="1" source="6YndOh8D73mqKDZ_mxwR-113" target="6YndOh8D73mqKDZ_mxwR-15">
          <mxGeometry relative="1" as="geometry" />
        </mxCell>
        <mxCell id="6YndOh8D73mqKDZ_mxwR-113" value="Route Price" style="ellipse;whiteSpace=wrap;html=1;align=center;strokeColor=#000000;fillColor=#ffffff;fontSize=7;" vertex="1" parent="1">
          <mxGeometry x="895.01" y="275.6" width="50" height="30" as="geometry" />
        </mxCell>
        <mxCell id="6YndOh8D73mqKDZ_mxwR-117" value="" style="edgeStyle=none;shape=connector;rounded=0;orthogonalLoop=1;jettySize=auto;html=1;labelBackgroundColor=default;strokeColor=default;fontFamily=Helvetica;fontSize=7;fontColor=default;endArrow=none;endFill=0;entryX=1;entryY=0.75;entryDx=0;entryDy=0;" edge="1" parent="1" source="6YndOh8D73mqKDZ_mxwR-116" target="6YndOh8D73mqKDZ_mxwR-66">
          <mxGeometry relative="1" as="geometry" />
        </mxCell>
        <mxCell id="6YndOh8D73mqKDZ_mxwR-116" value="Weekday&lt;br&gt;Price Factor" style="ellipse;whiteSpace=wrap;html=1;align=center;strokeColor=#000000;fillColor=#ffffff;fontSize=7;" vertex="1" parent="1">
          <mxGeometry x="915.01" y="425.64" width="50" height="30" as="geometry" />
        </mxCell>
        <mxCell id="e-1JwnE7ZOLf_Y56nIoI-69" style="edgeStyle=none;shape=connector;rounded=0;orthogonalLoop=1;jettySize=auto;html=1;entryX=0.75;entryY=1;entryDx=0;entryDy=0;labelBackgroundColor=default;strokeColor=default;fontFamily=Helvetica;fontSize=11;fontColor=default;endArrow=none;endFill=0;" edge="1" parent="1" source="6YndOh8D73mqKDZ_mxwR-120" target="6YndOh8D73mqKDZ_mxwR-189">
          <mxGeometry relative="1" as="geometry" />
        </mxCell>
        <mxCell id="6YndOh8D73mqKDZ_mxwR-120" value="Amount paid" style="ellipse;whiteSpace=wrap;html=1;align=center;strokeColor=#000000;fillColor=#ffffff;fontSize=7;" vertex="1" parent="1">
          <mxGeometry x="200" y="442.08000000000015" width="50" height="30" as="geometry" />
        </mxCell>
        <mxCell id="e-1JwnE7ZOLf_Y56nIoI-30" style="edgeStyle=none;shape=connector;rounded=0;orthogonalLoop=1;jettySize=auto;html=1;labelBackgroundColor=default;strokeColor=default;fontFamily=Helvetica;fontSize=7;fontColor=default;endArrow=none;endFill=0;" edge="1" parent="1" source="e-1JwnE7ZOLf_Y56nIoI-29" target="e-1JwnE7ZOLf_Y56nIoI-22">
          <mxGeometry relative="1" as="geometry">
            <mxPoint x="610" y="380" as="targetPoint" />
          </mxGeometry>
        </mxCell>
        <mxCell id="e-1JwnE7ZOLf_Y56nIoI-29" value="&lt;u style=&quot;font-size: 7px;&quot;&gt;Flight Number&lt;/u&gt;" style="ellipse;whiteSpace=wrap;html=1;align=center;strokeColor=#000000;fillColor=#ffffff;fontSize=7;" vertex="1" parent="1">
          <mxGeometry x="564.5600000000001" y="439.04" width="50" height="30" as="geometry" />
        </mxCell>
        <mxCell id="6YndOh8D73mqKDZ_mxwR-134" value="&lt;span style=&quot;font-weight: normal; font-size: 7px;&quot;&gt;N&lt;/span&gt;" style="text;strokeColor=none;fillColor=none;html=1;fontSize=7;fontStyle=1;verticalAlign=middle;align=center;fontFamily=Helvetica;fontColor=default;" vertex="1" parent="1">
          <mxGeometry x="311.31000000000006" y="198.32" width="25" height="22.64" as="geometry" />
        </mxCell>
        <mxCell id="6YndOh8D73mqKDZ_mxwR-135" value="&lt;span style=&quot;font-weight: normal; font-size: 7px;&quot;&gt;N&lt;/span&gt;" style="text;strokeColor=none;fillColor=none;html=1;fontSize=7;fontStyle=1;verticalAlign=middle;align=center;fontFamily=Helvetica;fontColor=default;" vertex="1" parent="1">
          <mxGeometry x="447.53" y="198.32000000000002" width="25" height="22.64" as="geometry" />
        </mxCell>
        <mxCell id="e-1JwnE7ZOLf_Y56nIoI-35" style="edgeStyle=none;shape=connector;rounded=0;orthogonalLoop=1;jettySize=auto;html=1;labelBackgroundColor=default;strokeColor=default;fontFamily=Helvetica;fontSize=7;fontColor=default;endArrow=none;endFill=0;" edge="1" parent="1" source="e-1JwnE7ZOLf_Y56nIoI-34" target="6YndOh8D73mqKDZ_mxwR-6">
          <mxGeometry relative="1" as="geometry" />
        </mxCell>
        <mxCell id="e-1JwnE7ZOLf_Y56nIoI-34" value="&lt;u style=&quot;font-size: 7px;&quot;&gt;Code&lt;/u&gt;" style="ellipse;whiteSpace=wrap;html=1;align=center;strokeColor=#000000;fillColor=#ffffff;fontSize=7;" vertex="1" parent="1">
          <mxGeometry x="730.0100000000001" y="128.60000000000005" width="50" height="30" as="geometry" />
        </mxCell>
        <mxCell id="e-1JwnE7ZOLf_Y56nIoI-37" style="edgeStyle=none;shape=connector;rounded=0;orthogonalLoop=1;jettySize=auto;html=1;labelBackgroundColor=default;strokeColor=default;fontFamily=Helvetica;fontSize=7;fontColor=default;endArrow=none;endFill=0;" edge="1" parent="1" source="e-1JwnE7ZOLf_Y56nIoI-36" target="6YndOh8D73mqKDZ_mxwR-101">
          <mxGeometry relative="1" as="geometry" />
        </mxCell>
        <mxCell id="e-1JwnE7ZOLf_Y56nIoI-36" value="&lt;u style=&quot;font-size: 7px;&quot;&gt;Passport Number&lt;/u&gt;" style="ellipse;whiteSpace=wrap;html=1;align=center;strokeColor=#000000;fillColor=#ffffff;fontSize=7;" vertex="1" parent="1">
          <mxGeometry x="230.0000000000001" y="140.94000000000005" width="50" height="30" as="geometry" />
        </mxCell>
        <mxCell id="e-1JwnE7ZOLf_Y56nIoI-40" style="edgeStyle=none;shape=connector;rounded=0;orthogonalLoop=1;jettySize=auto;html=1;labelBackgroundColor=default;strokeColor=default;fontFamily=Helvetica;fontSize=7;fontColor=default;endArrow=none;endFill=0;" edge="1" parent="1" source="e-1JwnE7ZOLf_Y56nIoI-38" target="6YndOh8D73mqKDZ_mxwR-61">
          <mxGeometry relative="1" as="geometry" />
        </mxCell>
        <mxCell id="e-1JwnE7ZOLf_Y56nIoI-38" value="&lt;u style=&quot;font-size: 7px;&quot;&gt;R&lt;span style=&quot;white-space: pre; font-size: 7px;&quot;&gt;eservation&lt;br style=&quot;font-size: 7px;&quot;&gt;Number&lt;/span&gt;&lt;/u&gt;" style="ellipse;whiteSpace=wrap;html=1;align=center;strokeColor=#000000;fillColor=#ffffff;fontSize=7;" vertex="1" parent="1">
          <mxGeometry x="479.34000000000003" y="148.60000000000002" width="50" height="30" as="geometry" />
        </mxCell>
        <mxCell id="e-1JwnE7ZOLf_Y56nIoI-78" style="edgeStyle=none;shape=connector;rounded=0;orthogonalLoop=1;jettySize=auto;html=1;entryX=0.25;entryY=1;entryDx=0;entryDy=0;labelBackgroundColor=default;strokeColor=default;fontFamily=Helvetica;fontSize=11;fontColor=default;endArrow=none;endFill=0;" edge="1" parent="1" source="e-1JwnE7ZOLf_Y56nIoI-41" target="6YndOh8D73mqKDZ_mxwR-60">
          <mxGeometry relative="1" as="geometry" />
        </mxCell>
        <mxCell id="e-1JwnE7ZOLf_Y56nIoI-41" value="&lt;u style=&quot;font-size: 7px;&quot;&gt;Booking Number&lt;/u&gt;" style="ellipse;whiteSpace=wrap;html=1;align=center;strokeColor=#000000;fillColor=#ffffff;fontSize=7;" vertex="1" parent="1">
          <mxGeometry x="326.36" y="442.08" width="50" height="30" as="geometry" />
        </mxCell>
        <mxCell id="e-1JwnE7ZOLf_Y56nIoI-46" style="edgeStyle=none;shape=connector;rounded=0;orthogonalLoop=1;jettySize=auto;html=1;labelBackgroundColor=default;strokeColor=default;fontFamily=Helvetica;fontSize=7;fontColor=default;endArrow=none;endFill=0;" edge="1" parent="1" source="e-1JwnE7ZOLf_Y56nIoI-45" target="6YndOh8D73mqKDZ_mxwR-66">
          <mxGeometry relative="1" as="geometry" />
        </mxCell>
        <mxCell id="e-1JwnE7ZOLf_Y56nIoI-45" value="&lt;u style=&quot;font-size: 7px;&quot;&gt;ID&lt;/u&gt;" style="ellipse;whiteSpace=wrap;html=1;align=center;strokeColor=#000000;fillColor=#ffffff;fontSize=7;" vertex="1" parent="1">
          <mxGeometry x="905.01" y="326.6400000000001" width="50" height="30" as="geometry" />
        </mxCell>
        <mxCell id="6YndOh8D73mqKDZ_mxwR-147" value="" style="edgeStyle=none;shape=connector;rounded=0;orthogonalLoop=1;jettySize=auto;html=1;labelBackgroundColor=default;strokeColor=default;fontFamily=Helvetica;fontSize=7;fontColor=default;endArrow=none;endFill=0;" edge="1" parent="1" source="B59qE2EvhQR9CG80C_Uz-4" target="B59qE2EvhQR9CG80C_Uz-1">
          <mxGeometry relative="1" as="geometry" />
        </mxCell>
        <mxCell id="6YndOh8D73mqKDZ_mxwR-148" value="" style="edgeStyle=none;shape=connector;rounded=0;orthogonalLoop=1;jettySize=auto;html=1;labelBackgroundColor=default;strokeColor=default;fontFamily=Helvetica;fontSize=7;fontColor=default;endArrow=none;endFill=0;" edge="1" parent="1" source="e-1JwnE7ZOLf_Y56nIoI-49" target="B59qE2EvhQR9CG80C_Uz-1">
          <mxGeometry relative="1" as="geometry" />
        </mxCell>
        <mxCell id="6YndOh8D73mqKDZ_mxwR-149" value="" style="edgeStyle=none;shape=connector;rounded=0;orthogonalLoop=1;jettySize=auto;html=1;labelBackgroundColor=default;strokeColor=default;fontFamily=Helvetica;fontSize=7;fontColor=default;endArrow=none;endFill=0;exitX=0.529;exitY=0.983;exitDx=0;exitDy=0;exitPerimeter=0;entryX=0.524;entryY=-0.005;entryDx=0;entryDy=0;entryPerimeter=0;" edge="1" parent="1" source="e-1JwnE7ZOLf_Y56nIoI-49" target="e-1JwnE7ZOLf_Y56nIoI-22">
          <mxGeometry relative="1" as="geometry">
            <mxPoint x="649" y="380" as="targetPoint" />
          </mxGeometry>
        </mxCell>
        <mxCell id="e-1JwnE7ZOLf_Y56nIoI-49" value="On plane" style="shape=rhombus;perimeter=rhombusPerimeter;whiteSpace=wrap;html=1;align=center;shadow=0;fontSize=7;fillColor=#fff2cc;strokeColor=#d6b656;" vertex="1" parent="1">
          <mxGeometry x="614.56" y="330.68" width="65.45" height="31.32" as="geometry" />
        </mxCell>
        <mxCell id="6YndOh8D73mqKDZ_mxwR-146" value="" style="edgeStyle=none;shape=connector;rounded=0;orthogonalLoop=1;jettySize=auto;html=1;labelBackgroundColor=default;strokeColor=default;fontFamily=Helvetica;fontSize=7;fontColor=default;endArrow=none;endFill=0;" edge="1" parent="1" source="e-1JwnE7ZOLf_Y56nIoI-43" target="B59qE2EvhQR9CG80C_Uz-1">
          <mxGeometry relative="1" as="geometry" />
        </mxCell>
        <mxCell id="6YndOh8D73mqKDZ_mxwR-150" value="&lt;span style=&quot;font-weight: normal; font-size: 7px;&quot;&gt;1&lt;/span&gt;" style="text;strokeColor=none;fillColor=none;html=1;fontSize=7;fontStyle=1;verticalAlign=middle;align=center;fontFamily=Helvetica;fontColor=default;" vertex="1" parent="1">
          <mxGeometry x="643.0100000000001" y="366.04" width="25" height="22.64" as="geometry" />
        </mxCell>
        <mxCell id="6YndOh8D73mqKDZ_mxwR-151" value="&lt;span style=&quot;font-weight: normal; font-size: 7px;&quot;&gt;1&lt;/span&gt;" style="text;strokeColor=none;fillColor=none;html=1;fontSize=7;fontStyle=1;verticalAlign=middle;align=center;fontFamily=Helvetica;fontColor=default;" vertex="1" parent="1">
          <mxGeometry x="640.0100000000001" y="307.04" width="25" height="22.64" as="geometry" />
        </mxCell>
        <mxCell id="6YndOh8D73mqKDZ_mxwR-153" value="" style="edgeStyle=none;shape=connector;rounded=0;orthogonalLoop=1;jettySize=auto;html=1;labelBackgroundColor=default;strokeColor=default;fontFamily=Helvetica;fontSize=7;fontColor=default;endArrow=none;endFill=0;" edge="1" parent="1" source="6YndOh8D73mqKDZ_mxwR-152" target="B59qE2EvhQR9CG80C_Uz-1">
          <mxGeometry relative="1" as="geometry" />
        </mxCell>
        <mxCell id="6YndOh8D73mqKDZ_mxwR-152" value="&lt;u style=&quot;font-size: 7px;&quot;&gt;ID&lt;/u&gt;" style="ellipse;whiteSpace=wrap;html=1;align=center;strokeColor=#000000;fillColor=#ffffff;fontSize=7;" vertex="1" parent="1">
          <mxGeometry x="564.56" y="227.00000000000003" width="50" height="30" as="geometry" />
        </mxCell>
        <mxCell id="6YndOh8D73mqKDZ_mxwR-167" value="" style="edgeStyle=none;shape=connector;rounded=0;orthogonalLoop=1;jettySize=auto;html=1;labelBackgroundColor=default;strokeColor=default;fontFamily=Helvetica;fontSize=7;fontColor=default;endArrow=none;endFill=0;entryX=0;entryY=0.5;entryDx=0;entryDy=0;" edge="1" parent="1" source="6YndOh8D73mqKDZ_mxwR-166" target="e-1JwnE7ZOLf_Y56nIoI-22">
          <mxGeometry relative="1" as="geometry" />
        </mxCell>
        <mxCell id="6YndOh8D73mqKDZ_mxwR-220" style="edgeStyle=none;shape=connector;rounded=0;orthogonalLoop=1;jettySize=auto;html=1;labelBackgroundColor=default;strokeColor=default;fontFamily=Helvetica;fontSize=11;fontColor=default;endArrow=none;endFill=0;" edge="1" parent="1" source="6YndOh8D73mqKDZ_mxwR-166">
          <mxGeometry relative="1" as="geometry">
            <mxPoint x="550" y="398" as="targetPoint" />
          </mxGeometry>
        </mxCell>
        <mxCell id="6YndOh8D73mqKDZ_mxwR-166" value="Books flight / &lt;br&gt;seats" style="shape=rhombus;perimeter=rhombusPerimeter;whiteSpace=wrap;html=1;align=center;shadow=0;fontSize=7;fillColor=#fff2cc;strokeColor=#d6b656;" vertex="1" parent="1">
          <mxGeometry x="489.11000000000007" y="379.12" width="75.45" height="37.76" as="geometry" />
        </mxCell>
        <mxCell id="6YndOh8D73mqKDZ_mxwR-169" value="&lt;span style=&quot;font-weight: normal; font-size: 7px;&quot;&gt;1&lt;/span&gt;" style="text;strokeColor=none;fillColor=none;html=1;fontSize=7;fontStyle=1;verticalAlign=middle;align=center;fontFamily=Helvetica;fontColor=default;" vertex="1" parent="1">
          <mxGeometry x="585" y="380.72" width="25" height="22.64" as="geometry" />
        </mxCell>
        <mxCell id="6YndOh8D73mqKDZ_mxwR-170" value="&lt;span style=&quot;font-weight: normal; font-size: 7px;&quot;&gt;N&lt;/span&gt;" style="text;strokeColor=none;fillColor=none;html=1;fontSize=7;fontStyle=1;verticalAlign=middle;align=center;fontFamily=Helvetica;fontColor=default;" vertex="1" parent="1">
          <mxGeometry x="444.53000000000003" y="382.75999999999993" width="25" height="22.64" as="geometry" />
        </mxCell>
        <mxCell id="6YndOh8D73mqKDZ_mxwR-172" value="" style="edgeStyle=none;shape=connector;rounded=0;orthogonalLoop=1;jettySize=auto;html=1;labelBackgroundColor=default;strokeColor=default;fontFamily=Helvetica;fontSize=7;fontColor=default;endArrow=none;endFill=0;" edge="1" parent="1" source="6YndOh8D73mqKDZ_mxwR-171" target="6YndOh8D73mqKDZ_mxwR-61">
          <mxGeometry relative="1" as="geometry">
            <mxPoint x="525.2599999999998" y="233.35999999999993" as="targetPoint" />
          </mxGeometry>
        </mxCell>
        <mxCell id="6YndOh8D73mqKDZ_mxwR-173" value="" style="edgeStyle=none;shape=connector;rounded=0;orthogonalLoop=1;jettySize=auto;html=1;labelBackgroundColor=default;strokeColor=default;fontFamily=Helvetica;fontSize=7;fontColor=default;endArrow=none;endFill=0;entryX=0.57;entryY=-0.022;entryDx=0;entryDy=0;entryPerimeter=0;" edge="1" parent="1" source="6YndOh8D73mqKDZ_mxwR-171" target="6YndOh8D73mqKDZ_mxwR-60">
          <mxGeometry relative="1" as="geometry" />
        </mxCell>
        <mxCell id="6YndOh8D73mqKDZ_mxwR-171" value="Regarding&lt;br&gt;reservation" style="shape=rhombus;perimeter=rhombusPerimeter;whiteSpace=wrap;html=1;align=center;shadow=0;fontSize=7;fillColor=#fff2cc;strokeColor=#d6b656;" vertex="1" parent="1">
          <mxGeometry x="416.39" y="291.96000000000004" width="72.72" height="36.98" as="geometry" />
        </mxCell>
        <mxCell id="6YndOh8D73mqKDZ_mxwR-179" value="" style="edgeStyle=none;shape=connector;rounded=0;orthogonalLoop=1;jettySize=auto;html=1;labelBackgroundColor=default;strokeColor=default;fontFamily=Helvetica;fontSize=7;fontColor=default;endArrow=none;endFill=0;" edge="1" parent="1" source="6YndOh8D73mqKDZ_mxwR-176">
          <mxGeometry relative="1" as="geometry" />
        </mxCell>
        <mxCell id="e-1JwnE7ZOLf_Y56nIoI-68" style="edgeStyle=none;shape=connector;rounded=0;orthogonalLoop=1;jettySize=auto;html=1;entryX=0.5;entryY=1;entryDx=0;entryDy=0;labelBackgroundColor=default;strokeColor=default;fontFamily=Helvetica;fontSize=11;fontColor=default;endArrow=none;endFill=0;" edge="1" parent="1" source="6YndOh8D73mqKDZ_mxwR-176" target="6YndOh8D73mqKDZ_mxwR-189">
          <mxGeometry relative="1" as="geometry" />
        </mxCell>
        <mxCell id="6YndOh8D73mqKDZ_mxwR-176" value="&lt;span style=&quot;font-size: 7px;&quot;&gt;Credit Card Number&lt;/span&gt;" style="ellipse;whiteSpace=wrap;html=1;align=center;strokeColor=#000000;fillColor=#ffffff;fontSize=7;" vertex="1" parent="1">
          <mxGeometry x="140" y="447.94000000000005" width="50" height="30" as="geometry" />
        </mxCell>
        <mxCell id="e-1JwnE7ZOLf_Y56nIoI-67" style="edgeStyle=none;shape=connector;rounded=0;orthogonalLoop=1;jettySize=auto;html=1;labelBackgroundColor=default;strokeColor=default;fontFamily=Helvetica;fontSize=11;fontColor=default;endArrow=none;endFill=0;" edge="1" parent="1" source="6YndOh8D73mqKDZ_mxwR-182" target="6YndOh8D73mqKDZ_mxwR-189">
          <mxGeometry relative="1" as="geometry" />
        </mxCell>
        <mxCell id="6YndOh8D73mqKDZ_mxwR-182" value="Credit Card Holder" style="ellipse;whiteSpace=wrap;html=1;align=center;strokeColor=#000000;fillColor=#ffffff;fontSize=7;" vertex="1" parent="1">
          <mxGeometry x="80" y="439.04000000000013" width="50" height="30" as="geometry" />
        </mxCell>
        <mxCell id="e-1JwnE7ZOLf_Y56nIoI-58" style="edgeStyle=none;shape=connector;rounded=0;orthogonalLoop=1;jettySize=auto;html=1;labelBackgroundColor=default;strokeColor=default;fontFamily=Helvetica;fontSize=11;fontColor=default;endArrow=none;endFill=0;" edge="1" parent="1" source="e-1JwnE7ZOLf_Y56nIoI-56" target="e-1JwnE7ZOLf_Y56nIoI-22">
          <mxGeometry relative="1" as="geometry" />
        </mxCell>
        <mxCell id="e-1JwnE7ZOLf_Y56nIoI-56" value="Booked&lt;br&gt;Seats" style="ellipse;whiteSpace=wrap;html=1;align=center;shadow=0;gradientColor=none;fontSize=7;" vertex="1" parent="1">
          <mxGeometry x="680.0099999999999" y="442.08" width="50" height="30" as="geometry" />
        </mxCell>
        <mxCell id="6YndOh8D73mqKDZ_mxwR-189" value="Payment" style="align=center;strokeColor=#6c8ebf;fillColor=#dae8fc;fontSize=11;labelBackgroundColor=none;shadow=0;fillStyle=auto;fontStyle=1;whiteSpace=wrap;html=1;" vertex="1" parent="1">
          <mxGeometry x="130" y="384.7600000000001" width="70" height="30" as="geometry" />
        </mxCell>
        <mxCell id="e-1JwnE7ZOLf_Y56nIoI-76" style="edgeStyle=none;shape=connector;rounded=0;orthogonalLoop=1;jettySize=auto;html=1;entryX=0.5;entryY=1;entryDx=0;entryDy=0;labelBackgroundColor=default;strokeColor=default;fontFamily=Helvetica;fontSize=11;fontColor=default;endArrow=none;endFill=0;" edge="1" parent="1" source="6YndOh8D73mqKDZ_mxwR-190" target="6YndOh8D73mqKDZ_mxwR-60">
          <mxGeometry relative="1" as="geometry" />
        </mxCell>
        <mxCell id="6YndOh8D73mqKDZ_mxwR-190" value="Contact E-mail" style="ellipse;whiteSpace=wrap;html=1;align=center;strokeColor=#000000;fillColor=#ffffff;fontSize=7;" vertex="1" parent="1">
          <mxGeometry x="384.31000000000006" y="453.72000000000014" width="50" height="30" as="geometry" />
        </mxCell>
        <mxCell id="e-1JwnE7ZOLf_Y56nIoI-77" style="edgeStyle=none;shape=connector;rounded=0;orthogonalLoop=1;jettySize=auto;html=1;entryX=0.75;entryY=1;entryDx=0;entryDy=0;labelBackgroundColor=default;strokeColor=default;fontFamily=Helvetica;fontSize=11;fontColor=default;endArrow=none;endFill=0;" edge="1" parent="1" source="6YndOh8D73mqKDZ_mxwR-191" target="6YndOh8D73mqKDZ_mxwR-60">
          <mxGeometry relative="1" as="geometry" />
        </mxCell>
        <mxCell id="6YndOh8D73mqKDZ_mxwR-191" value="Contact Phone Number" style="ellipse;whiteSpace=wrap;html=1;align=center;strokeColor=#000000;fillColor=#ffffff;fontSize=7;" vertex="1" parent="1">
          <mxGeometry x="444.09000000000003" y="447.94000000000017" width="50" height="30" as="geometry" />
        </mxCell>
        <mxCell id="e-1JwnE7ZOLf_Y56nIoI-66" style="edgeStyle=none;shape=connector;rounded=0;orthogonalLoop=1;jettySize=auto;html=1;labelBackgroundColor=default;strokeColor=default;fontFamily=Helvetica;fontSize=11;fontColor=default;endArrow=none;endFill=0;" edge="1" parent="1" source="6YndOh8D73mqKDZ_mxwR-194" target="6YndOh8D73mqKDZ_mxwR-189">
          <mxGeometry relative="1" as="geometry" />
        </mxCell>
        <mxCell id="6YndOh8D73mqKDZ_mxwR-194" value="&lt;u&gt;Transaction&lt;br&gt;ID&lt;/u&gt;" style="ellipse;whiteSpace=wrap;html=1;align=center;strokeColor=#000000;fillColor=#ffffff;fontSize=7;" vertex="1" parent="1">
          <mxGeometry x="140" y="328.94000000000017" width="50" height="30" as="geometry" />
        </mxCell>
        <mxCell id="6YndOh8D73mqKDZ_mxwR-196" value="" style="edgeStyle=none;shape=connector;rounded=0;orthogonalLoop=1;jettySize=auto;html=1;labelBackgroundColor=default;strokeColor=default;fontFamily=Helvetica;fontSize=11;fontColor=default;endArrow=none;endFill=0;" edge="1" parent="1" source="6YndOh8D73mqKDZ_mxwR-195" target="6YndOh8D73mqKDZ_mxwR-60">
          <mxGeometry relative="1" as="geometry" />
        </mxCell>
        <mxCell id="6YndOh8D73mqKDZ_mxwR-197" value="" style="edgeStyle=none;shape=connector;rounded=0;orthogonalLoop=1;jettySize=auto;html=1;labelBackgroundColor=default;strokeColor=default;fontFamily=Helvetica;fontSize=11;fontColor=default;endArrow=none;endFill=0;" edge="1" parent="1" source="6YndOh8D73mqKDZ_mxwR-195" target="6YndOh8D73mqKDZ_mxwR-189">
          <mxGeometry relative="1" as="geometry" />
        </mxCell>
        <mxCell id="6YndOh8D73mqKDZ_mxwR-195" value="Has" style="shape=rhombus;perimeter=rhombusPerimeter;whiteSpace=wrap;html=1;align=center;shadow=0;fontSize=7;fillColor=#fff2cc;strokeColor=#d6b656;" vertex="1" parent="1">
          <mxGeometry x="256.36" y="386.08000000000004" width="50" height="27.92" as="geometry" />
        </mxCell>
        <mxCell id="6YndOh8D73mqKDZ_mxwR-198" value="&lt;span style=&quot;font-weight: normal; font-size: 7px;&quot;&gt;1&lt;/span&gt;" style="text;strokeColor=none;fillColor=none;html=1;fontSize=7;fontStyle=1;verticalAlign=middle;align=center;fontFamily=Helvetica;fontColor=default;" vertex="1" parent="1">
          <mxGeometry x="351.35999999999996" y="381.08000000000004" width="25" height="22.64" as="geometry" />
        </mxCell>
        <mxCell id="6YndOh8D73mqKDZ_mxwR-199" value="&lt;span style=&quot;font-weight: normal; font-size: 7px;&quot;&gt;1&lt;/span&gt;" style="text;strokeColor=none;fillColor=none;html=1;fontSize=7;fontStyle=1;verticalAlign=middle;align=center;fontFamily=Helvetica;fontColor=default;" vertex="1" parent="1">
          <mxGeometry x="196.81" y="381.08000000000004" width="25" height="22.64" as="geometry" />
        </mxCell>
        <mxCell id="6YndOh8D73mqKDZ_mxwR-201" value="" style="edgeStyle=none;shape=connector;rounded=0;orthogonalLoop=1;jettySize=auto;html=1;labelBackgroundColor=default;strokeColor=default;fontFamily=Helvetica;fontSize=11;fontColor=default;endArrow=none;endFill=0;" edge="1" parent="1" source="6YndOh8D73mqKDZ_mxwR-202" target="6YndOh8D73mqKDZ_mxwR-101">
          <mxGeometry relative="1" as="geometry">
            <mxPoint x="281.77090339096964" y="259.04202622959787" as="sourcePoint" />
          </mxGeometry>
        </mxCell>
        <mxCell id="6YndOh8D73mqKDZ_mxwR-210" value="" style="edgeStyle=none;shape=connector;rounded=0;orthogonalLoop=1;jettySize=auto;html=1;labelBackgroundColor=default;strokeColor=default;fontFamily=Helvetica;fontSize=11;fontColor=default;endArrow=none;endFill=0;" edge="1" parent="1" source="e-1JwnE7ZOLf_Y56nIoI-71" target="6YndOh8D73mqKDZ_mxwR-211">
          <mxGeometry relative="1" as="geometry">
            <mxPoint x="196.6457506550958" y="328.4700000000001" as="targetPoint" />
          </mxGeometry>
        </mxCell>
        <mxCell id="e-1JwnE7ZOLf_Y56nIoI-71" value="Ticket Number" style="ellipse;whiteSpace=wrap;html=1;align=center;shadow=0;gradientColor=none;fontSize=7;" vertex="1" parent="1">
          <mxGeometry x="321.81454545454545" y="285.26693950177935" width="54.54545454545455" height="20.88967971530249" as="geometry" />
        </mxCell>
        <mxCell id="6YndOh8D73mqKDZ_mxwR-208" value="" style="edgeStyle=none;shape=connector;rounded=0;orthogonalLoop=1;jettySize=auto;html=1;labelBackgroundColor=default;strokeColor=default;fontFamily=Helvetica;fontSize=11;fontColor=default;endArrow=none;endFill=0;exitX=0.526;exitY=0.979;exitDx=0;exitDy=0;exitPerimeter=0;entryX=0.529;entryY=0.004;entryDx=0;entryDy=0;entryPerimeter=0;" edge="1" parent="1" source="6YndOh8D73mqKDZ_mxwR-202" target="6YndOh8D73mqKDZ_mxwR-211">
          <mxGeometry relative="1" as="geometry">
            <mxPoint x="217.83086070584403" y="328.4700000000001" as="targetPoint" />
          </mxGeometry>
        </mxCell>
        <mxCell id="e-1JwnE7ZOLf_Y56nIoI-80" style="edgeStyle=none;shape=connector;rounded=0;orthogonalLoop=1;jettySize=auto;html=1;labelBackgroundColor=default;strokeColor=default;fontFamily=Helvetica;fontSize=11;fontColor=default;endArrow=none;endFill=0;exitX=0.469;exitY=0.964;exitDx=0;exitDy=0;exitPerimeter=0;" edge="1" parent="1" source="6YndOh8D73mqKDZ_mxwR-202">
          <mxGeometry relative="1" as="geometry">
            <mxPoint x="280" y="310" as="targetPoint" />
            <mxPoint x="277.36" y="286.84999999999997" as="sourcePoint" />
          </mxGeometry>
        </mxCell>
        <mxCell id="6YndOh8D73mqKDZ_mxwR-202" value="Belongs to" style="shape=rhombus;perimeter=rhombusPerimeter;whiteSpace=wrap;html=1;align=center;shadow=0;fontSize=7;fillColor=#fff2cc;strokeColor=#d6b656;" vertex="1" parent="1">
          <mxGeometry x="244.99999999999994" y="251.87" width="72.72" height="36.98" as="geometry" />
        </mxCell>
        <mxCell id="6YndOh8D73mqKDZ_mxwR-204" value="" style="edgeStyle=none;shape=connector;rounded=0;orthogonalLoop=1;jettySize=auto;html=1;labelBackgroundColor=default;strokeColor=default;fontFamily=Helvetica;fontSize=11;fontColor=default;endArrow=none;endFill=0;" edge="1" parent="1" source="6YndOh8D73mqKDZ_mxwR-203" target="6YndOh8D73mqKDZ_mxwR-211">
          <mxGeometry relative="1" as="geometry">
            <mxPoint x="246.82" y="343.4324213606439" as="targetPoint" />
          </mxGeometry>
        </mxCell>
        <mxCell id="6YndOh8D73mqKDZ_mxwR-205" value="" style="edgeStyle=none;shape=connector;rounded=0;orthogonalLoop=1;jettySize=auto;html=1;labelBackgroundColor=default;strokeColor=default;fontFamily=Helvetica;fontSize=11;fontColor=default;endArrow=none;endFill=0;" edge="1" parent="1" source="6YndOh8D73mqKDZ_mxwR-203" target="6YndOh8D73mqKDZ_mxwR-60">
          <mxGeometry relative="1" as="geometry" />
        </mxCell>
        <mxCell id="6YndOh8D73mqKDZ_mxwR-203" value="Regarding&lt;br&gt;booking" style="shape=rhombus;perimeter=rhombusPerimeter;whiteSpace=wrap;html=1;align=center;shadow=0;fontSize=7;fillColor=#fff2cc;strokeColor=#d6b656;" vertex="1" parent="1">
          <mxGeometry x="306.3599999999999" y="342.14000000000004" width="72.72" height="36.98" as="geometry" />
        </mxCell>
        <mxCell id="6YndOh8D73mqKDZ_mxwR-211" value="Ticket" style="align=center;strokeColor=#6c8ebf;fillColor=#dae8fc;fontSize=11;labelBackgroundColor=none;shadow=0;fillStyle=auto;fontStyle=1;whiteSpace=wrap;html=1;" vertex="1" parent="1">
          <mxGeometry x="246.36000000000007" y="310.0800000000001" width="70" height="30" as="geometry" />
        </mxCell>
        <mxCell id="6YndOh8D73mqKDZ_mxwR-216" value="&lt;span style=&quot;font-weight: normal; font-size: 7px;&quot;&gt;1&lt;/span&gt;" style="text;strokeColor=none;fillColor=none;html=1;fontSize=7;fontStyle=1;verticalAlign=middle;align=center;fontFamily=Helvetica;fontColor=default;" vertex="1" parent="1">
          <mxGeometry x="460" y="231.32000000000005" width="25" height="22.64" as="geometry" />
        </mxCell>
        <mxCell id="6YndOh8D73mqKDZ_mxwR-217" value="&lt;span style=&quot;font-weight: normal; font-size: 7px;&quot;&gt;1&lt;/span&gt;" style="text;strokeColor=none;fillColor=none;html=1;fontSize=7;fontStyle=1;verticalAlign=middle;align=center;fontFamily=Helvetica;fontColor=default;" vertex="1" parent="1">
          <mxGeometry x="396.59" y="362.12000000000006" width="25" height="22.64" as="geometry" />
        </mxCell>
        <mxCell id="Qf1WPh9bubAhgD8E0PNI-3" value="" style="edgeStyle=none;shape=connector;rounded=0;orthogonalLoop=1;jettySize=auto;html=1;labelBackgroundColor=default;strokeColor=default;fontFamily=Helvetica;fontSize=7;fontColor=default;endArrow=none;endFill=0;entryX=0.642;entryY=0.032;entryDx=0;entryDy=0;entryPerimeter=0;exitX=0.444;exitY=0.957;exitDx=0;exitDy=0;exitPerimeter=0;" edge="1" parent="1" source="6YndOh8D73mqKDZ_mxwR-171" target="6YndOh8D73mqKDZ_mxwR-60">
          <mxGeometry relative="1" as="geometry">
            <mxPoint x="455" y="335" as="sourcePoint" />
            <mxPoint x="424" y="394" as="targetPoint" />
          </mxGeometry>
        </mxCell>
        <mxCell id="Qf1WPh9bubAhgD8E0PNI-4" value="" style="edgeStyle=none;shape=connector;rounded=0;orthogonalLoop=1;jettySize=auto;html=1;labelBackgroundColor=default;strokeColor=default;fontFamily=Helvetica;fontSize=7;fontColor=default;endArrow=none;endFill=0;entryX=0.468;entryY=-0.005;entryDx=0;entryDy=0;entryPerimeter=0;exitX=0.467;exitY=0.971;exitDx=0;exitDy=0;exitPerimeter=0;" edge="1" parent="1" source="e-1JwnE7ZOLf_Y56nIoI-49" target="e-1JwnE7ZOLf_Y56nIoI-22">
          <mxGeometry relative="1" as="geometry">
            <mxPoint x="657" y="372" as="sourcePoint" />
            <mxPoint x="657" y="393" as="targetPoint" />
          </mxGeometry>
        </mxCell>
        <mxCell id="Qf1WPh9bubAhgD8E0PNI-5" value="" style="edgeStyle=none;shape=connector;rounded=0;orthogonalLoop=1;jettySize=auto;html=1;labelBackgroundColor=default;strokeColor=default;fontFamily=Helvetica;fontSize=7;fontColor=default;endArrow=none;endFill=0;exitX=0.91;exitY=0.597;exitDx=0;exitDy=0;exitPerimeter=0;entryX=-0.001;entryY=0.663;entryDx=0;entryDy=0;entryPerimeter=0;" edge="1" parent="1" source="6YndOh8D73mqKDZ_mxwR-102" target="6YndOh8D73mqKDZ_mxwR-61">
          <mxGeometry relative="1" as="geometry">
            <mxPoint x="420" y="222" as="sourcePoint" />
            <mxPoint x="468" y="222" as="targetPoint" />
          </mxGeometry>
        </mxCell>
        <mxCell id="Qf1WPh9bubAhgD8E0PNI-7" value="&lt;span style=&quot;font-weight: normal; font-size: 7px;&quot;&gt;1&lt;/span&gt;" style="text;strokeColor=none;fillColor=none;html=1;fontSize=7;fontStyle=1;verticalAlign=middle;align=center;fontFamily=Helvetica;fontColor=default;" vertex="1" parent="1">
          <mxGeometry x="372.59" y="367.44000000000005" width="25" height="22.64" as="geometry" />
        </mxCell>
        <mxCell id="Qf1WPh9bubAhgD8E0PNI-8" value="&lt;span style=&quot;font-weight: normal; font-size: 7px;&quot;&gt;N&lt;/span&gt;" style="text;strokeColor=none;fillColor=none;html=1;fontSize=7;fontStyle=1;verticalAlign=middle;align=center;fontFamily=Helvetica;fontColor=default;" vertex="1" parent="1">
          <mxGeometry x="311.31" y="329.67999999999995" width="25" height="22.64" as="geometry" />
        </mxCell>
        <mxCell id="Qf1WPh9bubAhgD8E0PNI-11" value="" style="edgeStyle=none;shape=connector;rounded=0;orthogonalLoop=1;jettySize=auto;html=1;labelBackgroundColor=default;strokeColor=default;fontFamily=Helvetica;fontSize=7;fontColor=default;endArrow=none;endFill=0;exitX=0.574;exitY=1.034;exitDx=0;exitDy=0;exitPerimeter=0;entryX=0.33;entryY=0.166;entryDx=0;entryDy=0;entryPerimeter=0;" edge="1" parent="1" source="6YndOh8D73mqKDZ_mxwR-61" target="6YndOh8D73mqKDZ_mxwR-92">
          <mxGeometry relative="1" as="geometry">
            <mxPoint x="524" y="241" as="sourcePoint" />
            <mxPoint x="565" y="308" as="targetPoint" />
          </mxGeometry>
        </mxCell>
        <mxCell id="Qf1WPh9bubAhgD8E0PNI-12" value="" style="edgeStyle=none;shape=connector;rounded=0;orthogonalLoop=1;jettySize=auto;html=1;labelBackgroundColor=default;strokeColor=default;fontFamily=Helvetica;fontSize=11;fontColor=default;endArrow=none;endFill=0;exitX=0.996;exitY=0.612;exitDx=0;exitDy=0;exitPerimeter=0;entryX=0.103;entryY=0.629;entryDx=0;entryDy=0;entryPerimeter=0;" edge="1" parent="1" source="6YndOh8D73mqKDZ_mxwR-60" target="6YndOh8D73mqKDZ_mxwR-166">
          <mxGeometry relative="1" as="geometry">
            <mxPoint x="454" y="409" as="sourcePoint" />
            <mxPoint x="500" y="409" as="targetPoint" />
          </mxGeometry>
        </mxCell>
        <mxCell id="Qf1WPh9bubAhgD8E0PNI-13" value="&lt;span style=&quot;font-weight: normal; font-size: 7px;&quot;&gt;1&lt;/span&gt;" style="text;strokeColor=none;fillColor=none;html=1;fontSize=7;fontStyle=1;verticalAlign=middle;align=center;fontFamily=Helvetica;fontColor=default;" vertex="1" parent="1">
          <mxGeometry x="256.35999999999996" y="291.96000000000004" width="25" height="22.64" as="geometry" />
        </mxCell>
        <mxCell id="Qf1WPh9bubAhgD8E0PNI-14" value="&lt;span style=&quot;font-weight: normal; font-size: 7px;&quot;&gt;1&lt;/span&gt;" style="text;strokeColor=none;fillColor=none;html=1;fontSize=7;fontStyle=1;verticalAlign=middle;align=center;fontFamily=Helvetica;fontColor=default;" vertex="1" parent="1">
          <mxGeometry x="262.49999999999994" y="229.23000000000002" width="25" height="22.64" as="geometry" />
        </mxCell>
        <mxCell id="Qf1WPh9bubAhgD8E0PNI-16" value="" style="edgeStyle=none;shape=connector;rounded=0;orthogonalLoop=1;jettySize=auto;html=1;labelBackgroundColor=default;strokeColor=default;fontFamily=Helvetica;fontSize=7;fontColor=default;endArrow=none;endFill=0;entryX=0.445;entryY=0.942;entryDx=0;entryDy=0;exitX=-0.054;exitY=1.043;exitDx=0;exitDy=0;exitPerimeter=0;entryPerimeter=0;" edge="1" parent="1" source="6YndOh8D73mqKDZ_mxwR-108" target="6YndOh8D73mqKDZ_mxwR-67">
          <mxGeometry relative="1" as="geometry">
            <mxPoint x="786.01" y="418.6" as="sourcePoint" />
            <mxPoint x="810.01" y="404.6" as="targetPoint" />
          </mxGeometry>
        </mxCell>
        <mxCell id="Qf1WPh9bubAhgD8E0PNI-18" value="" style="edgeStyle=none;shape=connector;rounded=0;orthogonalLoop=1;jettySize=auto;html=1;labelBackgroundColor=default;strokeColor=default;fontFamily=Helvetica;fontSize=7;fontColor=default;endArrow=none;endFill=0;entryX=1.002;entryY=0.548;entryDx=0;entryDy=0;entryPerimeter=0;exitX=0.093;exitY=0.609;exitDx=0;exitDy=0;exitPerimeter=0;" edge="1" parent="1" source="e-1JwnE7ZOLf_Y56nIoI-24" target="e-1JwnE7ZOLf_Y56nIoI-22">
          <mxGeometry relative="1" as="geometry">
            <mxPoint x="714.29" y="382.36" as="sourcePoint" />
            <mxPoint x="682.29" y="403.36" as="targetPoint" />
          </mxGeometry>
        </mxCell>
        <mxCell id="Qf1WPh9bubAhgD8E0PNI-19" value="" style="edgeStyle=none;shape=connector;rounded=0;orthogonalLoop=1;jettySize=auto;html=1;labelBackgroundColor=default;strokeColor=default;fontFamily=Helvetica;fontSize=11;fontColor=default;endArrow=none;endFill=0;exitX=1.009;exitY=0.651;exitDx=0;exitDy=0;exitPerimeter=0;entryX=0.101;entryY=0.646;entryDx=0;entryDy=0;entryPerimeter=0;" edge="1" parent="1" source="6YndOh8D73mqKDZ_mxwR-189" target="6YndOh8D73mqKDZ_mxwR-195">
          <mxGeometry relative="1" as="geometry">
            <mxPoint x="203.36" y="405.4" as="sourcePoint" />
            <mxPoint x="256.36" y="405.4" as="targetPoint" />
          </mxGeometry>
        </mxCell>
        <mxCell id="Qf1WPh9bubAhgD8E0PNI-20" value="" style="edgeStyle=none;shape=connector;rounded=0;orthogonalLoop=1;jettySize=auto;html=1;labelBackgroundColor=default;strokeColor=default;fontFamily=Helvetica;fontSize=11;fontColor=default;endArrow=none;endFill=0;exitX=0.892;exitY=0.641;exitDx=0;exitDy=0;exitPerimeter=0;entryX=0.015;entryY=0.636;entryDx=0;entryDy=0;entryPerimeter=0;" edge="1" parent="1" source="6YndOh8D73mqKDZ_mxwR-195" target="6YndOh8D73mqKDZ_mxwR-60">
          <mxGeometry relative="1" as="geometry">
            <mxPoint x="211" y="414" as="sourcePoint" />
            <mxPoint x="271" y="414" as="targetPoint" />
          </mxGeometry>
        </mxCell>
      </root>
    </mxGraphModel>
  </diagram>
  <diagram id="84zUwEt8LRDDHHk4Rw6f" name="Relational Model">
    <mxGraphModel grid="1" page="1" gridSize="10" guides="1" tooltips="1" connect="1" arrows="1" fold="1" pageScale="1" pageWidth="1169" pageHeight="827" math="0" shadow="0">
      <root>
        <mxCell id="ga0Zw6LBFhbuao-3WzkD-0" />
        <mxCell id="ga0Zw6LBFhbuao-3WzkD-1" parent="ga0Zw6LBFhbuao-3WzkD-0" />
        <UserObject label="%date{ddd mmm dd yyyy HH:MM:ss}%" placeholders="1" id="Ka_tqsI0y06mJdhhlla0-0">
          <mxCell style="text;html=1;align=center;verticalAlign=middle;whiteSpace=wrap;overflow=hidden;fontColor=#FCFCFC;movable=0;resizable=0;rotatable=0;deletable=0;editable=0;connectable=0;" vertex="1" parent="ga0Zw6LBFhbuao-3WzkD-1">
            <mxGeometry x="1000" y="800" width="160" height="20" as="geometry" />
          </mxCell>
        </UserObject>
        <mxCell id="Ka_tqsI0y06mJdhhlla0-1" value="" style="shape=filledEdge;rounded=0;fixDash=1;endArrow=none;strokeWidth=10;fillColor=#ffffff;edgeStyle=orthogonalEdgeStyle;fontColor=#FCFCFC;" edge="1" parent="ga0Zw6LBFhbuao-3WzkD-1">
          <mxGeometry width="60" height="40" relative="1" as="geometry">
            <mxPoint x="10" y="790" as="sourcePoint" />
            <mxPoint x="40" y="820" as="targetPoint" />
            <Array as="points">
              <mxPoint x="10" y="820" />
            </Array>
          </mxGeometry>
        </mxCell>
        <mxCell id="Ka_tqsI0y06mJdhhlla0-2" value="" style="shape=filledEdge;rounded=0;fixDash=1;endArrow=none;strokeWidth=10;fillColor=#ffffff;edgeStyle=orthogonalEdgeStyle;fontColor=#FCFCFC;" edge="1" parent="ga0Zw6LBFhbuao-3WzkD-1">
          <mxGeometry width="60" height="40" relative="1" as="geometry">
            <mxPoint x="1130" y="10" as="sourcePoint" />
            <mxPoint x="1160" y="40" as="targetPoint" />
            <Array as="points">
              <mxPoint x="1160" y="10" />
            </Array>
          </mxGeometry>
        </mxCell>
        <mxCell id="Ka_tqsI0y06mJdhhlla0-3" value="" style="shape=filledEdge;rounded=0;fixDash=1;endArrow=none;strokeWidth=10;fillColor=#ffffff;edgeStyle=orthogonalEdgeStyle;fontColor=#FCFCFC;" edge="1" parent="ga0Zw6LBFhbuao-3WzkD-1">
          <mxGeometry width="60" height="40" relative="1" as="geometry">
            <mxPoint x="1129.9899999999998" y="820" as="sourcePoint" />
            <mxPoint x="1159.9899999999998" y="790" as="targetPoint" />
            <Array as="points">
              <mxPoint x="1159.99" y="820" />
            </Array>
          </mxGeometry>
        </mxCell>
        <mxCell id="Ka_tqsI0y06mJdhhlla0-4" value="&lt;table border=&quot;1&quot; width=&quot;100%&quot; cellpadding=&quot;4&quot; style=&quot;width: 100% ; height: 100% ; border-collapse: collapse&quot;&gt;&lt;tbody&gt;&lt;tr&gt;&lt;th&gt;Assignment #:&lt;/th&gt;&lt;td&gt;4a&lt;/td&gt;&lt;/tr&gt;&lt;tr&gt;&lt;td&gt;Description:&lt;/td&gt;&lt;td&gt;Relational Model&lt;/td&gt;&lt;/tr&gt;&lt;tr&gt;&lt;td&gt;Students:&lt;/td&gt;&lt;td&gt;Philip Svensson&lt;br style=&quot;border-color: var(--border-color);&quot;&gt;Mohammed Al-Hashimi&lt;br&gt;&lt;/td&gt;&lt;/tr&gt;&lt;tr&gt;&lt;td&gt;Repository URL:&lt;/td&gt;&lt;td&gt;&lt;a href=&quot;https://gitlab.liu.se/alial32/db&quot;&gt;https://gitlab.liu.se/phisv708/db&lt;/a&gt;&lt;/td&gt;&lt;/tr&gt;&lt;/tbody&gt;&lt;/table&gt;" style="text;html=1;strokeColor=none;fillColor=none;overflow=fill;fontColor=#000000;" vertex="1" parent="ga0Zw6LBFhbuao-3WzkD-1">
          <mxGeometry x="10" y="10" width="280" height="110" as="geometry" />
        </mxCell>
        <mxCell id="IGMXOhCDPmq3_l0k84RG-0" value="&lt;table border=&quot;1&quot; width=&quot;100%&quot; style=&quot;width: 100% ; height: 100% ; border-collapse: collapse&quot;&gt;&lt;tbody&gt;&lt;tr&gt;&lt;td&gt;&lt;b&gt;Airplane&lt;/b&gt;&lt;/td&gt;&lt;td&gt;&lt;br&gt;&lt;/td&gt;&lt;td&gt;&lt;br&gt;&lt;/td&gt;&lt;/tr&gt;&lt;tr&gt;&lt;td style=&quot;text-align: center&quot;&gt;&lt;u&gt;ID&lt;/u&gt;&lt;/td&gt;&lt;td style=&quot;text-align: center&quot;&gt;Model&lt;/td&gt;&lt;td style=&quot;text-align: center&quot;&gt;Capacity&lt;/td&gt;&lt;/tr&gt;&lt;/tbody&gt;&lt;/table&gt;" style="text;html=1;overflow=fill;recursiveResize=1;autosize=1;labelBackgroundColor=none;labelBorderColor=none;fillColor=default;" vertex="1" parent="ga0Zw6LBFhbuao-3WzkD-1">
          <mxGeometry x="350" y="340" width="160" height="50" as="geometry" />
        </mxCell>
        <mxCell id="tErhHAeKlasX0cMtOekA-3" style="edgeStyle=orthogonalEdgeStyle;rounded=0;orthogonalLoop=1;jettySize=auto;html=1;entryX=0.144;entryY=1.004;entryDx=0;entryDy=0;entryPerimeter=0;exitX=0.564;exitY=1.007;exitDx=0;exitDy=0;exitPerimeter=0;" edge="1" parent="ga0Zw6LBFhbuao-3WzkD-1" source="IGMXOhCDPmq3_l0k84RG-1" target="MrUzFp80nVnipoG-I0D1-14">
          <mxGeometry relative="1" as="geometry">
            <mxPoint x="540" y="310" as="sourcePoint" />
            <Array as="points">
              <mxPoint x="531" y="320" />
              <mxPoint x="680" y="320" />
              <mxPoint x="680" y="250" />
              <mxPoint x="408" y="250" />
            </Array>
          </mxGeometry>
        </mxCell>
        <mxCell id="ukNOowSMN-3aeF1TUUm6-1" value="" style="edgeStyle=orthogonalEdgeStyle;shape=connector;rounded=0;orthogonalLoop=1;jettySize=auto;html=1;labelBackgroundColor=default;strokeColor=default;fontFamily=Helvetica;fontSize=11;fontColor=default;endArrow=classic;endFill=1;entryX=0.199;entryY=1.004;entryDx=0;entryDy=0;entryPerimeter=0;" edge="1" parent="ga0Zw6LBFhbuao-3WzkD-1" source="IGMXOhCDPmq3_l0k84RG-1" target="IGMXOhCDPmq3_l0k84RG-0">
          <mxGeometry relative="1" as="geometry">
            <Array as="points">
              <mxPoint x="450" y="320" />
              <mxPoint x="520" y="320" />
              <mxPoint x="520" y="400" />
              <mxPoint x="382" y="400" />
            </Array>
          </mxGeometry>
        </mxCell>
        <mxCell id="IGMXOhCDPmq3_l0k84RG-1" value="&lt;table border=&quot;1&quot; width=&quot;100%&quot; style=&quot;width: 100% ; height: 100% ; border-collapse: collapse&quot;&gt;&lt;tbody&gt;&lt;tr&gt;&lt;td&gt;&lt;b&gt;Flight&lt;/b&gt;&lt;/td&gt;&lt;td&gt;&lt;br&gt;&lt;/td&gt;&lt;td&gt;&lt;br&gt;&lt;/td&gt;&lt;td&gt;&lt;br&gt;&lt;/td&gt;&lt;td&gt;&lt;br&gt;&lt;/td&gt;&lt;/tr&gt;&lt;tr&gt;&lt;td style=&quot;text-align: center&quot;&gt;&lt;u&gt;FlightNumber&lt;/u&gt;&lt;/td&gt;&lt;td style=&quot;text-align: center&quot;&gt;PlaneID&lt;/td&gt;&lt;td&gt;WeeklyFlight&lt;/td&gt;&lt;td style=&quot;text-align: center&quot;&gt;Week&lt;/td&gt;&lt;td style=&quot;text-align: center&quot;&gt;BookedSeats&lt;/td&gt;&lt;/tr&gt;&lt;/tbody&gt;&lt;/table&gt;" style="text;html=1;overflow=fill;recursiveResize=1;autosize=1;labelBackgroundColor=none;labelBorderColor=none;fillColor=default;" vertex="1" parent="ga0Zw6LBFhbuao-3WzkD-1">
          <mxGeometry x="350" y="260" width="320" height="50" as="geometry" />
        </mxCell>
        <mxCell id="nb5WwWMjGwOC8N9jQs91-0" value="" style="edgeStyle=orthogonalEdgeStyle;shape=connector;rounded=0;orthogonalLoop=1;jettySize=auto;html=1;labelBackgroundColor=default;strokeColor=default;fontFamily=Helvetica;fontSize=11;fontColor=default;endArrow=classic;endFill=1;exitX=0.307;exitY=0.976;exitDx=0;exitDy=0;exitPerimeter=0;" edge="1" parent="ga0Zw6LBFhbuao-3WzkD-1" source="IGMXOhCDPmq3_l0k84RG-2" target="Cr721I1RWYTZgW6uVBve-0">
          <mxGeometry relative="1" as="geometry">
            <Array as="points">
              <mxPoint x="402" y="160" />
              <mxPoint x="540" y="160" />
              <mxPoint x="540" y="70" />
              <mxPoint x="390" y="70" />
            </Array>
          </mxGeometry>
        </mxCell>
        <mxCell id="nb5WwWMjGwOC8N9jQs91-2" value="" style="edgeStyle=orthogonalEdgeStyle;shape=connector;rounded=0;orthogonalLoop=1;jettySize=auto;html=1;labelBackgroundColor=default;strokeColor=default;fontFamily=Helvetica;fontSize=11;fontColor=default;endArrow=classic;endFill=1;" edge="1" parent="ga0Zw6LBFhbuao-3WzkD-1" source="IGMXOhCDPmq3_l0k84RG-2" target="Cr721I1RWYTZgW6uVBve-0">
          <mxGeometry relative="1" as="geometry">
            <Array as="points">
              <mxPoint x="430" y="150" />
              <mxPoint x="530" y="150" />
              <mxPoint x="530" y="80" />
              <mxPoint x="370" y="80" />
            </Array>
          </mxGeometry>
        </mxCell>
        <mxCell id="IGMXOhCDPmq3_l0k84RG-2" value="&lt;table border=&quot;1&quot; width=&quot;100%&quot; style=&quot;width: 100% ; height: 100% ; border-collapse: collapse&quot;&gt;&lt;tbody&gt;&lt;tr&gt;&lt;td&gt;&lt;b&gt;Route&lt;/b&gt;&lt;/td&gt;&lt;td&gt;&lt;br&gt;&lt;/td&gt;&lt;td&gt;&lt;br&gt;&lt;/td&gt;&lt;td&gt;&lt;br&gt;&lt;/td&gt;&lt;/tr&gt;&lt;tr&gt;&lt;td style=&quot;text-align: center&quot;&gt;&lt;u&gt;ID&lt;/u&gt;&lt;/td&gt;&lt;td style=&quot;text-align: center&quot;&gt;To&lt;/td&gt;&lt;td style=&quot;text-align: center&quot;&gt;From&lt;/td&gt;&lt;td style=&quot;text-align: center&quot;&gt;RoutePrice&lt;/td&gt;&lt;/tr&gt;&lt;/tbody&gt;&lt;/table&gt;" style="text;html=1;overflow=fill;recursiveResize=1;autosize=1;labelBackgroundColor=none;labelBorderColor=none;shadow=0;glass=0;rounded=0;fillColor=default;" vertex="1" parent="ga0Zw6LBFhbuao-3WzkD-1">
          <mxGeometry x="350" y="90" width="170" height="50" as="geometry" />
        </mxCell>
        <mxCell id="Cr721I1RWYTZgW6uVBve-0" value="&lt;table border=&quot;1&quot; width=&quot;100%&quot; style=&quot;width: 100% ; height: 100% ; border-collapse: collapse&quot;&gt;&lt;tbody&gt;&lt;tr&gt;&lt;td&gt;&lt;b&gt;Airport&lt;/b&gt;&lt;/td&gt;&lt;td&gt;&lt;br&gt;&lt;/td&gt;&lt;td&gt;&lt;br&gt;&lt;/td&gt;&lt;td&gt;&lt;br&gt;&lt;/td&gt;&lt;/tr&gt;&lt;tr&gt;&lt;td style=&quot;text-align: center&quot;&gt;&lt;u&gt;Code&lt;/u&gt;&lt;/td&gt;&lt;td style=&quot;text-align: center&quot;&gt;Name&lt;/td&gt;&lt;td style=&quot;text-align: center&quot;&gt;City&lt;/td&gt;&lt;td style=&quot;text-align: center&quot;&gt;Country&lt;/td&gt;&lt;/tr&gt;&lt;/tbody&gt;&lt;/table&gt;" style="text;html=1;overflow=fill;recursiveResize=1;autosize=1;labelBackgroundColor=none;labelBorderColor=none;fillColor=default;" vertex="1" parent="ga0Zw6LBFhbuao-3WzkD-1">
          <mxGeometry x="350" y="10" width="170" height="50" as="geometry" />
        </mxCell>
        <mxCell id="QaGf7zKQHufaB7Pstobk-0" value="" style="edgeStyle=orthogonalEdgeStyle;shape=connector;rounded=0;orthogonalLoop=1;jettySize=auto;html=1;labelBackgroundColor=default;strokeColor=default;fontFamily=Helvetica;fontSize=11;fontColor=default;endArrow=classic;endFill=1;exitX=0.308;exitY=0.998;exitDx=0;exitDy=0;exitPerimeter=0;" edge="1" parent="ga0Zw6LBFhbuao-3WzkD-1" source="MrUzFp80nVnipoG-I0D1-14" target="IGMXOhCDPmq3_l0k84RG-2">
          <mxGeometry relative="1" as="geometry">
            <Array as="points">
              <mxPoint x="473" y="240" />
              <mxPoint x="760" y="240" />
              <mxPoint x="760" y="170" />
              <mxPoint x="380" y="170" />
            </Array>
          </mxGeometry>
        </mxCell>
        <mxCell id="MrUzFp80nVnipoG-I0D1-14" value="&lt;table border=&quot;1&quot; width=&quot;100%&quot; style=&quot;width: 100% ; height: 100% ; border-collapse: collapse&quot;&gt;&lt;tbody&gt;&lt;tr&gt;&lt;td&gt;&lt;b&gt;WeeklySchedule&lt;/b&gt;&lt;/td&gt;&lt;td&gt;&lt;br&gt;&lt;/td&gt;&lt;td&gt;&lt;br&gt;&lt;/td&gt;&lt;td&gt;&lt;br&gt;&lt;/td&gt;&lt;td&gt;&lt;br&gt;&lt;/td&gt;&lt;td&gt;&lt;br&gt;&lt;/td&gt;&lt;/tr&gt;&lt;tr&gt;&lt;td style=&quot;text-align: center&quot;&gt;&lt;u&gt;ID&lt;/u&gt;&lt;/td&gt;&lt;td style=&quot;text-align: center&quot;&gt;Route&lt;/td&gt;&lt;td style=&quot;text-align: center&quot;&gt;TimeOfDeparture&lt;/td&gt;&lt;td style=&quot;text-align: center&quot;&gt;Weekday&lt;/td&gt;&lt;td&gt;Year&lt;/td&gt;&lt;td&gt;PriceFactor&lt;br&gt;&lt;/td&gt;&lt;/tr&gt;&lt;/tbody&gt;&lt;/table&gt;" style="text;html=1;overflow=fill;recursiveResize=1;autosize=1;labelBackgroundColor=none;labelBorderColor=none;shadow=0;glass=0;rounded=0;fillColor=default;" vertex="1" parent="ga0Zw6LBFhbuao-3WzkD-1">
          <mxGeometry x="350" y="180" width="400" height="50" as="geometry" />
        </mxCell>
        <mxCell id="mlGPHATPlwO_0Xu7v43B-0" value="" style="edgeStyle=orthogonalEdgeStyle;shape=connector;rounded=0;orthogonalLoop=1;jettySize=auto;html=1;labelBackgroundColor=default;strokeColor=default;fontFamily=Helvetica;fontSize=11;fontColor=default;endArrow=classic;endFill=1;entryX=0.131;entryY=1.034;entryDx=0;entryDy=0;entryPerimeter=0;exitX=0.5;exitY=1;exitDx=0;exitDy=0;" edge="1" parent="ga0Zw6LBFhbuao-3WzkD-1" source="MrUzFp80nVnipoG-I0D1-16" target="IGMXOhCDPmq3_l0k84RG-1">
          <mxGeometry relative="1" as="geometry">
            <mxPoint x="595" y="480" as="sourcePoint" />
            <Array as="points">
              <mxPoint x="850" y="610" />
              <mxPoint x="850" y="330" />
              <mxPoint x="392" y="330" />
            </Array>
          </mxGeometry>
        </mxCell>
        <mxCell id="mlGPHATPlwO_0Xu7v43B-1" value="" style="edgeStyle=orthogonalEdgeStyle;shape=connector;rounded=0;orthogonalLoop=1;jettySize=auto;html=1;labelBackgroundColor=default;strokeColor=default;fontFamily=Helvetica;fontSize=11;fontColor=default;endArrow=classic;endFill=1;entryX=0.202;entryY=0.99;entryDx=0;entryDy=0;exitX=0.326;exitY=1.005;exitDx=0;exitDy=0;exitPerimeter=0;entryPerimeter=0;" edge="1" parent="ga0Zw6LBFhbuao-3WzkD-1" source="MrUzFp80nVnipoG-I0D1-16" target="MrUzFp80nVnipoG-I0D1-17">
          <mxGeometry relative="1" as="geometry">
            <mxPoint x="500" y="610" as="sourcePoint" />
            <Array as="points">
              <mxPoint x="510" y="610" />
              <mxPoint x="340" y="610" />
              <mxPoint x="340" y="540" />
              <mxPoint x="410" y="540" />
              <mxPoint x="410" y="530" />
            </Array>
          </mxGeometry>
        </mxCell>
        <mxCell id="MrUzFp80nVnipoG-I0D1-16" value="&lt;table border=&quot;1&quot; width=&quot;100%&quot; style=&quot;width: 100% ; height: 100% ; border-collapse: collapse&quot;&gt;&lt;tbody&gt;&lt;tr&gt;&lt;td&gt;&lt;b&gt;Booking&lt;/b&gt;&lt;/td&gt;&lt;td&gt;&lt;br&gt;&lt;/td&gt;&lt;td&gt;&lt;br&gt;&lt;/td&gt;&lt;td&gt;&lt;br&gt;&lt;/td&gt;&lt;td&gt;&lt;br&gt;&lt;/td&gt;&lt;td&gt;&lt;br&gt;&lt;/td&gt;&lt;/tr&gt;&lt;tr&gt;&lt;td style=&quot;text-align: center&quot;&gt;&lt;u&gt;BookingNumber&lt;/u&gt;&lt;/td&gt;&lt;td&gt;ReservationNumber&lt;/td&gt;&lt;td style=&quot;text-align: center&quot;&gt;FlightNumber&lt;/td&gt;&lt;td style=&quot;text-align: center&quot;&gt;Email&lt;/td&gt;&lt;td style=&quot;text-align: center&quot;&gt;PhoneNumber&lt;/td&gt;&lt;td&gt;TransactionID&lt;/td&gt;&lt;/tr&gt;&lt;/tbody&gt;&lt;/table&gt;" style="text;html=1;overflow=fill;recursiveResize=1;autosize=1;labelBackgroundColor=none;labelBorderColor=none;shadow=0;glass=0;rounded=0;fillColor=default;" vertex="1" parent="ga0Zw6LBFhbuao-3WzkD-1">
          <mxGeometry x="350" y="550" width="490" height="50" as="geometry" />
        </mxCell>
        <mxCell id="tErhHAeKlasX0cMtOekA-5" style="edgeStyle=orthogonalEdgeStyle;rounded=0;orthogonalLoop=1;jettySize=auto;html=1;entryX=0.409;entryY=1.02;entryDx=0;entryDy=0;entryPerimeter=0;" edge="1" parent="ga0Zw6LBFhbuao-3WzkD-1" source="MrUzFp80nVnipoG-I0D1-17" target="tErhHAeKlasX0cMtOekA-0">
          <mxGeometry relative="1" as="geometry">
            <mxPoint x="480" y="470" as="targetPoint" />
            <Array as="points">
              <mxPoint x="520" y="540" />
              <mxPoint x="670" y="540" />
              <mxPoint x="670" y="470" />
              <mxPoint x="411" y="470" />
              <mxPoint x="411" y="461" />
            </Array>
          </mxGeometry>
        </mxCell>
        <mxCell id="MrUzFp80nVnipoG-I0D1-17" value="&lt;table border=&quot;1&quot; width=&quot;100%&quot; style=&quot;width: 100% ; height: 100% ; border-collapse: collapse&quot;&gt;&lt;tbody&gt;&lt;tr&gt;&lt;td&gt;&lt;b&gt;Reservation&lt;/b&gt;&lt;/td&gt;&lt;td&gt;&lt;br&gt;&lt;/td&gt;&lt;td&gt;&lt;br&gt;&lt;/td&gt;&lt;/tr&gt;&lt;tr&gt;&lt;td style=&quot;text-align: center&quot;&gt;&lt;u&gt;ReservationNumber&lt;/u&gt;&lt;/td&gt;&lt;td&gt;&lt;u&gt;Passenger&lt;/u&gt;&lt;/td&gt;&lt;td style=&quot;text-align: center&quot;&gt;FlightNumber&lt;br&gt;&lt;/td&gt;&lt;/tr&gt;&lt;/tbody&gt;&lt;/table&gt;" style="text;html=1;overflow=fill;recursiveResize=1;autosize=1;labelBackgroundColor=none;labelBorderColor=none;shadow=0;glass=0;rounded=0;fillColor=default;" vertex="1" parent="ga0Zw6LBFhbuao-3WzkD-1">
          <mxGeometry x="350" y="480" width="300" height="50" as="geometry" />
        </mxCell>
        <mxCell id="tErhHAeKlasX0cMtOekA-0" value="&lt;table border=&quot;1&quot; width=&quot;100%&quot; style=&quot;width: 100% ; height: 100% ; border-collapse: collapse&quot;&gt;&lt;tbody&gt;&lt;tr&gt;&lt;td&gt;&lt;b&gt;Passenger&lt;/b&gt;&lt;/td&gt;&lt;td&gt;&lt;br&gt;&lt;/td&gt;&lt;/tr&gt;&lt;tr&gt;&lt;td style=&quot;text-align: center&quot;&gt;&lt;u&gt;PassportNumber&lt;/u&gt;&lt;/td&gt;&lt;td&gt;Name&lt;/td&gt;&lt;/tr&gt;&lt;/tbody&gt;&lt;/table&gt;" style="text;html=1;overflow=fill;recursiveResize=1;autosize=1;labelBackgroundColor=none;labelBorderColor=none;shadow=0;glass=0;rounded=0;fillColor=default;" vertex="1" parent="ga0Zw6LBFhbuao-3WzkD-1">
          <mxGeometry x="350" y="410" width="150" height="50" as="geometry" />
        </mxCell>
        <mxCell id="bzC7DCors8ZvtsW0bNLz-0" value="" style="edgeStyle=orthogonalEdgeStyle;shape=connector;rounded=0;orthogonalLoop=1;jettySize=auto;html=1;labelBackgroundColor=default;strokeColor=default;fontFamily=Helvetica;fontSize=11;fontColor=default;endArrow=classic;endFill=1;entryX=0.105;entryY=0.992;entryDx=0;entryDy=0;entryPerimeter=0;exitX=0.5;exitY=1;exitDx=0;exitDy=0;" edge="1" parent="ga0Zw6LBFhbuao-3WzkD-1" source="tErhHAeKlasX0cMtOekA-1" target="MrUzFp80nVnipoG-I0D1-16">
          <mxGeometry relative="1" as="geometry">
            <Array as="points">
              <mxPoint x="490" y="690" />
              <mxPoint x="340" y="690" />
              <mxPoint x="340" y="620" />
              <mxPoint x="402" y="620" />
            </Array>
          </mxGeometry>
        </mxCell>
        <mxCell id="bzC7DCors8ZvtsW0bNLz-1" value="" style="edgeStyle=orthogonalEdgeStyle;shape=connector;rounded=0;orthogonalLoop=1;jettySize=auto;html=1;labelBackgroundColor=default;strokeColor=default;fontFamily=Helvetica;fontSize=11;fontColor=default;endArrow=classic;endFill=1;entryX=0.25;entryY=1;entryDx=0;entryDy=0;" edge="1" parent="ga0Zw6LBFhbuao-3WzkD-1" source="tErhHAeKlasX0cMtOekA-1" target="tErhHAeKlasX0cMtOekA-0">
          <mxGeometry relative="1" as="geometry">
            <Array as="points">
              <mxPoint x="580" y="700" />
              <mxPoint x="330" y="700" />
              <mxPoint x="330" y="470" />
              <mxPoint x="387" y="470" />
            </Array>
          </mxGeometry>
        </mxCell>
        <mxCell id="tErhHAeKlasX0cMtOekA-1" value="&lt;table border=&quot;1&quot; width=&quot;100%&quot; style=&quot;width: 100% ; height: 100% ; border-collapse: collapse&quot;&gt;&lt;tbody&gt;&lt;tr&gt;&lt;td&gt;&lt;b&gt;Ticket&lt;/b&gt;&lt;/td&gt;&lt;td&gt;&lt;br&gt;&lt;/td&gt;&lt;td&gt;&lt;br&gt;&lt;/td&gt;&lt;/tr&gt;&lt;tr&gt;&lt;td style=&quot;text-align: center&quot;&gt;&lt;u&gt;TicketNumber&lt;/u&gt;&lt;/td&gt;&lt;td&gt;BookingNumber&lt;/td&gt;&lt;td&gt;PassportNumber&lt;/td&gt;&lt;/tr&gt;&lt;/tbody&gt;&lt;/table&gt;" style="text;html=1;overflow=fill;recursiveResize=1;autosize=1;labelBackgroundColor=none;labelBorderColor=none;shadow=0;glass=0;rounded=0;fillColor=default;" vertex="1" parent="ga0Zw6LBFhbuao-3WzkD-1">
          <mxGeometry x="350" y="630" width="280" height="50" as="geometry" />
        </mxCell>
        <mxCell id="kiwG9Tlo0q7RJgZ-P0sB-0" value="" style="edgeStyle=orthogonalEdgeStyle;shape=connector;rounded=0;orthogonalLoop=1;jettySize=auto;html=1;labelBackgroundColor=default;strokeColor=default;fontFamily=Helvetica;fontSize=11;fontColor=default;endArrow=classic;endFill=1;exitX=0.787;exitY=1.013;exitDx=0;exitDy=0;exitPerimeter=0;entryX=0.135;entryY=0.978;entryDx=0;entryDy=0;entryPerimeter=0;" edge="1" parent="ga0Zw6LBFhbuao-3WzkD-1" source="tErhHAeKlasX0cMtOekA-2" target="MrUzFp80nVnipoG-I0D1-16">
          <mxGeometry relative="1" as="geometry">
            <Array as="points">
              <mxPoint x="686" y="770" />
              <mxPoint x="810" y="770" />
              <mxPoint x="810" y="620" />
              <mxPoint x="416" y="620" />
            </Array>
          </mxGeometry>
        </mxCell>
        <mxCell id="tErhHAeKlasX0cMtOekA-2" value="&lt;table border=&quot;1&quot; width=&quot;100%&quot; style=&quot;width: 100% ; height: 100% ; border-collapse: collapse&quot;&gt;&lt;tbody&gt;&lt;tr&gt;&lt;td&gt;&lt;b&gt;Payment&lt;/b&gt;&lt;/td&gt;&lt;td&gt;&lt;br&gt;&lt;/td&gt;&lt;td&gt;&lt;br&gt;&lt;/td&gt;&lt;td&gt;&lt;br&gt;&lt;/td&gt;&lt;td&gt;&lt;br&gt;&lt;/td&gt;&lt;/tr&gt;&lt;tr&gt;&lt;td style=&quot;text-align: center&quot;&gt;&lt;u&gt;TransactionID&lt;/u&gt;&lt;/td&gt;&lt;td&gt;CreditCardHolder&lt;/td&gt;&lt;td style=&quot;text-align: center&quot;&gt;CreditCardNumber&lt;/td&gt;&lt;td style=&quot;text-align: center&quot;&gt;BookingNumber&lt;/td&gt;&lt;td&gt;Amount&lt;/td&gt;&lt;/tr&gt;&lt;/tbody&gt;&lt;/table&gt;" style="text;html=1;overflow=fill;recursiveResize=1;autosize=1;labelBackgroundColor=none;labelBorderColor=none;shadow=0;glass=0;rounded=0;fillColor=default;" vertex="1" parent="ga0Zw6LBFhbuao-3WzkD-1">
          <mxGeometry x="340" y="710" width="440" height="50" as="geometry" />
        </mxCell>
        <mxCell id="d0cYLi8EXyK9YcLYD2X8-0" value="" style="rounded=0;whiteSpace=wrap;html=1;" vertex="1" parent="ga0Zw6LBFhbuao-3WzkD-1">
          <mxGeometry x="20" y="640" width="250" height="100" as="geometry" />
        </mxCell>
        <mxCell id="d0cYLi8EXyK9YcLYD2X8-1" value="Just to clarify, even though we can have multiple rows with the same ReservationNumber in the Reservation table, we will only insert this number in the Booking table once." style="text;html=1;strokeColor=none;fillColor=none;align=left;verticalAlign=middle;whiteSpace=wrap;rounded=0;" vertex="1" parent="ga0Zw6LBFhbuao-3WzkD-1">
          <mxGeometry x="25" y="610" width="250" height="150" as="geometry" />
        </mxCell>
      </root>
    </mxGraphModel>
  </diagram>
</mxfile>
